<svg width="130" height="130" viewBox="0 0 130 130" fill="none" xmlns="http://www.w3.org/2000/svg">
<path d="M62.8326 4.23059L62.8334 4.23056C68.5421 4.0498 74.2779 4.61099 79.8284 5.97943C90.1813 8.50242 99.8322 13.7719 107.541 21.0765C114.5 27.6323 119.904 35.8102 123.136 44.7806M62.8326 4.23059L70.5464 126.045C82.4395 125.003 93.9792 120.386 103.275 112.955L103.586 113.346C103.586 113.346 103.586 113.346 103.587 113.346C111.892 106.747 118.459 97.9972 122.386 88.1785C127.933 74.4414 128.199 58.6981 123.136 44.7806M62.8326 4.23059C53.5103 4.54059 44.2513 6.95918 36.0219 11.3322C28.5949 15.2313 21.9981 20.6664 16.7456 27.1705C11.2593 33.938 7.2507 41.8778 5.09385 50.2978C3.44406 56.6641 2.88803 63.2926 3.33472 69.8406L3.33473 69.8408C4.0038 79.5988 7.09498 89.1872 12.2774 97.5066C17.2835 105.66 24.2716 112.591 32.4373 117.623L32.4415 117.625C35.6986 119.588 39.1044 121.339 42.685 122.688C51.5204 126.106 61.1594 127.384 70.5908 126.543L62.8326 4.23059ZM123.136 44.7806C123.136 44.781 123.136 44.7814 123.136 44.7818L122.666 44.9513M123.136 44.7806C123.136 44.7805 123.136 44.7804 123.136 44.7803L122.666 44.9513M122.666 44.9513C119.461 36.0551 114.101 27.9426 107.197 21.4395C99.5511 14.1944 89.9776 8.96729 79.7093 6.46503L122.666 44.9513ZM75.2513 2.33563L75.2547 2.33617C86.2971 4.07479 96.847 8.76123 105.52 15.7598L105.522 15.761C112.824 21.6072 118.806 29.0643 122.928 37.4268L122.929 37.4271C127.044 45.7647 129.286 55.0102 129.431 64.2919L129.431 64.3101L129.432 64.3284L129.434 64.3437C129.482 64.8815 129.525 65.371 129.483 65.8527C129.42 66.4664 129.412 67.0799 129.404 67.6679L129.403 67.7145C129.395 68.3258 129.385 68.9105 129.321 69.4883L129.319 69.5008L129.319 69.5133C128.933 75.8752 127.568 82.1801 125.293 88.1424L125.293 88.1426C121.523 98.0355 115.226 106.972 107.152 113.879L107.15 113.88C98.9327 120.958 88.878 125.924 78.2192 128.111L78.2174 128.112C74.8358 128.819 71.3935 129.231 67.9399 129.406C67.801 129.408 67.6621 129.41 67.5234 129.412C65.3062 129.449 63.108 129.485 60.9201 129.34L60.9177 129.34C54.1981 128.929 47.5435 127.47 41.2824 125.013L41.2685 125.007L41.2543 125.003C40.7977 124.854 40.3532 124.663 39.8889 124.458C39.8476 124.44 39.806 124.421 39.7642 124.403C39.3502 124.22 38.9178 124.029 38.4718 123.868C36.8964 123.155 35.3618 122.353 33.8206 121.535L33.8052 121.527L33.7893 121.52C33.3245 121.313 32.9106 121.052 32.4634 120.77C32.2746 120.651 32.0798 120.529 31.8728 120.405L31.8706 120.403C22.7086 114.983 14.9492 107.256 9.51117 98.1542L9.51023 98.1526C3.5101 88.1918 0.342807 76.5654 0.506005 64.9629L0.506045 64.9629L0.506054 64.9566C0.516841 57.2404 2.02989 49.5345 4.83781 42.3367L4.83782 42.3366C7.96557 34.3175 12.7776 26.957 18.8265 20.7978C23.2877 16.2782 28.4137 12.4017 34.0081 9.3677L34.0098 9.36673C42.3888 4.77891 51.8296 2.15202 61.3817 1.61058C66.0257 1.42563 70.6799 1.58332 75.2513 2.33563Z" stroke="white"/>
<path d="M40.1494 14.6504C41.5838 14.0326 43.0264 13.4336 44.4582 12.8091C44.9681 13.4674 45.3936 14.1823 45.8151 14.8972C47.0933 16.864 48.3292 18.8563 49.5856 20.8365C50.0492 21.6108 50.5849 22.3433 51.0078 23.1432C50.0003 23.614 48.9805 24.0645 47.9376 24.453C47.6045 23.842 47.2918 23.2215 46.9532 22.6144C46.582 22.6563 46.2502 22.8303 45.9253 22.9989C45.9987 23.73 46.3917 24.3802 46.476 25.1086C45.4494 25.5295 44.4527 26.0272 43.399 26.3766C42.5111 23.2444 41.6436 20.1054 40.768 16.9692C40.56 16.1962 40.3139 15.4341 40.1494 14.6504ZM43.622 16.3959C43.9456 17.9485 44.4527 19.4579 44.9164 20.9741C45.2754 20.9364 45.6112 20.8028 45.9348 20.6504C45.8437 20.3766 45.72 20.1135 45.5718 19.8653C44.9001 18.7214 44.2787 17.5479 43.622 16.3959Z" fill="white"/>
<path d="M89.0245 15.7079C89.276 15.3545 89.4881 14.9647 89.8308 14.6854C91.1266 15.3747 92.4169 16.0762 93.714 16.7628C93.9846 16.841 93.8962 17.154 93.8323 17.3482C92.5066 21.024 91.1945 24.7039 89.8784 28.3824C88.8423 27.9508 87.866 27.3815 86.9007 26.8136C87.1576 26.1446 87.59 25.5295 87.6798 24.8051C87.3833 24.6216 87.072 24.4611 86.7429 24.3464C86.3174 24.9076 85.9421 25.5052 85.5478 26.0879C84.5199 25.6198 83.5368 25.0546 82.5551 24.4989C84.683 21.5488 86.8762 18.6432 89.0245 15.7079ZM89.0626 20.4696C88.6288 21.1131 88.0958 21.7025 87.7845 22.4202C88.0822 22.5982 88.3895 22.7655 88.724 22.8734C89.3345 21.4314 89.9803 20.0015 90.5351 18.538C89.9871 19.1369 89.5507 19.8248 89.0626 20.4696Z" fill="white"/>
<path d="M33.2054 18.755C33.9492 18.3166 34.8779 17.9996 35.7304 18.3072C36.4564 18.5594 36.8752 19.2339 37.3226 19.8072C38.4402 21.3504 39.5361 22.9084 40.6375 24.4637C41.0848 25.1557 41.679 25.8936 41.5471 26.7704C41.4193 27.6094 40.6878 28.1571 40.0542 28.6413C38.7937 29.5532 37.5048 30.4273 36.2335 31.3257C36.0948 31.1773 35.9547 31.0303 35.8351 30.8657C33.7289 27.8738 31.6146 24.8846 29.4908 21.9034C29.3929 21.7564 29.3086 21.6013 29.2229 21.4462C30.5282 20.5181 31.8267 19.5752 33.2054 18.755ZM33.1511 21.1899C33.2163 21.4691 33.37 21.7132 33.5413 21.9399C34.9336 23.8702 36.2797 25.8329 37.6829 27.7537C37.9453 27.5595 38.3437 27.3113 38.2213 26.9322C37.9494 26.2848 37.5007 25.733 37.1023 25.1611C36.3953 24.1535 35.6678 23.1593 34.969 22.1449C34.6413 21.6849 34.3353 21.1858 33.8377 20.8864C33.6093 20.9889 33.3781 21.086 33.1511 21.1899Z" fill="white"/>
<path d="M96.428 22.5199C97.1867 21.666 97.857 20.7339 98.6619 19.9219C99.2289 20.3454 99.7592 20.8135 100.315 21.2533C100.503 21.4178 100.794 21.5945 100.661 21.8859C100.087 23.5046 99.3336 25.0626 98.8346 26.7056C99.9985 25.4862 101.016 24.1346 102.129 22.8679C102.927 23.2982 103.553 23.9808 104.253 24.5473C103.165 25.9934 101.929 27.3261 100.786 28.7304C99.3431 30.4098 97.9563 32.1364 96.4973 33.801C95.7209 33.2695 95.0329 32.6234 94.315 32.0204C94.4795 31.3001 94.848 30.6526 95.1186 29.97C95.5387 28.9462 96.0024 27.9385 96.3831 26.8985C95.1839 28.1652 94.1505 29.5802 92.9689 30.8644C92.2401 30.3288 91.4719 29.8001 90.8981 29.0986C92.731 26.8972 94.5802 24.7092 96.428 22.5199Z" fill="white"/>
<path d="M86.7756 44.9324C89.3141 44.1757 91.8458 43.3272 94.194 42.0902C93.3497 44.5844 92.6685 47.1365 92.2945 49.7454C91.5304 54.8227 91.563 59.9675 91.5263 65.0894C91.4393 68.5616 91.3808 72.0607 90.6221 75.4681C90.0456 78.2104 88.9552 80.8854 87.1794 83.0855C85.628 84.9052 83.7109 86.4025 81.6034 87.5396C77.4835 89.791 72.6866 90.8404 67.9997 90.4344C68.167 88.7226 68.5028 87.0297 68.821 85.3409C69.9998 79.4433 71.766 73.6551 74.1659 68.1326C76.4216 62.919 79.315 57.9509 83.0052 53.6047C78.918 57.0984 75.5201 61.3178 72.5751 65.7841C68.0528 72.7014 64.5679 80.2743 62.1286 88.1507C61.9899 88.117 61.839 88.0981 61.7302 87.9996C57.575 84.5517 54.7714 79.5836 53.8441 74.3012C53.4022 71.8165 53.3763 69.2468 53.9392 66.7783C54.3988 64.5633 55.4838 62.5372 56.6722 60.6285C58.2875 58.0871 60.3896 55.8574 62.7989 54.0404C66.7815 51.0498 71.5023 49.2314 76.253 47.8245C79.7433 46.802 83.2812 45.9441 86.7756 44.9324Z" fill="white"/>
<path d="M33.4434 56.463C35.6882 57.8106 38.1357 58.7967 40.6456 59.5399C43.5322 60.4329 46.4963 61.0507 49.3938 61.91C50.453 62.2014 51.5177 62.4981 52.5333 62.923C51.7379 64.7211 51.2212 66.6434 51.0526 68.602C51.0241 69.1402 50.9887 69.6771 50.952 70.2153C50.8881 71.0746 51.0363 71.9312 51.0105 72.7918C50.264 72.2603 49.6549 71.5696 48.9424 70.9977C47.1653 69.5179 45.361 68.0638 43.4792 66.7135C42.6566 66.1402 41.8816 65.4954 41.0155 64.9855C41.7864 66.0485 42.7137 66.9887 43.4969 68.0436C45.2917 70.2517 46.9641 72.5571 48.5209 74.9352C50.7494 78.344 52.7536 81.9402 54.0249 85.8184C54.3213 86.8665 54.6979 87.9146 54.7265 89.014C54.4682 89.0679 54.2139 89.1394 53.9528 89.1772C52.5483 89.3714 51.1179 89.3687 49.712 89.1907C47.1571 88.813 44.7288 87.7689 42.609 86.3188C40.942 85.1695 39.4817 83.6817 38.5558 81.8768C37.2464 79.4514 36.6604 76.7212 36.2647 74.0207C35.8392 71.0935 35.6556 68.1393 35.2749 65.2068C34.9458 62.2418 34.3122 59.3173 33.4434 56.463Z" fill="white"/>
<path d="M12.8211 61.2544C12.8578 61.2463 12.9326 61.2288 12.9706 61.2194C13.3813 62.0409 13.7348 62.892 14.1563 63.7095C14.2215 63.9051 14.4391 63.9226 14.6104 63.9604C15.4915 64.1236 16.3848 64.2194 17.2604 64.4109C16.5738 65.1393 15.811 65.7936 15.0945 66.4937C15.1094 67.5202 15.4371 68.513 15.4521 69.5409C14.5316 69.1092 13.6777 68.5508 12.7585 68.1178C11.8339 68.5602 10.9298 69.0458 10.0038 69.4842C10.1221 68.4591 10.4185 67.4662 10.5558 66.4465C9.85561 65.6964 9.09418 65.0071 8.39667 64.2544C9.41371 64.0683 10.4511 64.0224 11.4655 63.8241C11.9495 62.9838 12.3384 62.0948 12.8211 61.2544Z" fill="white"/>
<path d="M117.109 61.1626C117.697 62.0084 117.969 63.0228 118.502 63.9023C119.494 64.1033 120.524 64.141 121.487 64.4661C120.791 65.2053 119.95 65.7989 119.29 66.5704C119.416 67.5619 119.64 68.5412 119.717 69.5394C118.788 69.1267 117.941 68.5588 117.03 68.1109C116.081 68.5035 115.217 69.0795 114.248 69.4248C114.403 68.5062 114.592 67.5943 114.767 66.6811C114.838 66.4868 114.667 66.3425 114.561 66.2103C113.95 65.5385 113.258 64.945 112.672 64.253C113.681 64.0601 114.716 64.0345 115.719 63.8078C116.199 62.9351 116.638 62.0407 117.109 61.1626Z" fill="white"/>
<path d="M94.7719 98.9084C95.4585 98.3459 96.1424 97.7794 96.8195 97.2034C97.8434 98.2474 98.7122 99.4291 99.6953 100.51C100.919 101.948 102.136 103.392 103.369 104.823C103.802 105.352 104.286 105.838 104.676 106.402C103.995 107.06 103.252 107.658 102.5 108.234C100.903 107.276 99.3635 106.224 97.7632 105.275C98.8536 106.667 100.079 107.95 101.168 109.344C100.507 109.955 99.8299 110.558 99.0916 111.077C96.4483 108.047 93.8595 104.968 91.253 101.906C91.8567 101.349 92.5012 100.837 93.1294 100.307C93.2408 100.164 93.4203 100.183 93.5645 100.268C95.1036 101.148 96.5829 102.13 98.1411 102.977C97.1268 101.703 96.0432 100.485 94.9826 99.251C94.9051 99.1391 94.8385 99.0231 94.7719 98.9084Z" fill="white"/>
<path d="M84.4342 105.777C85.8224 105.053 87.1699 104.247 88.5826 103.572C90.5908 106.166 92.5923 108.765 94.5951 111.363C95.0615 111.996 95.5863 112.588 96.0119 113.252C95.0628 113.817 94.077 114.323 93.1008 114.841C92.6671 114.274 92.3298 113.643 91.8934 113.079C91.563 113.208 91.2462 113.368 90.9416 113.548C91.0463 114.283 91.5004 114.9 91.7166 115.6C90.9906 116.02 90.2387 116.393 89.5112 116.81C89.2624 116.954 88.9973 117.07 88.7185 117.145C87.5084 113.966 86.2833 110.792 85.0759 107.613C84.8543 107.003 84.5497 106.419 84.4342 105.777ZM87.9789 107.172C88.5595 108.698 89.0802 110.253 89.8172 111.714C90.1312 111.552 90.4426 111.385 90.7513 111.211C89.858 109.846 88.917 108.509 87.9789 107.172Z" fill="white"/>
<path d="M45.085 105.604C46.5425 106.178 47.9784 106.81 49.4251 107.411C49.3788 108.03 49.1667 108.618 49.0213 109.218C48.1769 112.568 47.2836 115.906 46.4637 119.262C45.4127 118.901 44.4119 118.41 43.3772 118.005C43.5118 117.289 43.8409 116.626 44.004 115.917C43.6655 115.744 43.3147 115.6 42.9435 115.519C42.556 116.115 42.3031 116.79 41.8652 117.355C40.8536 116.922 39.8298 116.52 38.8318 116.057C39.1024 115.414 39.5225 114.851 39.8692 114.251C41.6028 111.366 43.3391 108.482 45.085 105.604ZM43.7783 113.423C44.0842 113.618 44.416 113.764 44.7559 113.894C45.3202 112.377 45.7417 110.81 46.2502 109.273C45.3528 110.612 44.5615 112.017 43.7783 113.423Z" fill="white"/>
<path d="M62.8506 5.54629C67.9902 5.39252 73.1516 5.82957 78.1715 6.95187C83.806 8.20638 89.2665 10.25 94.3123 13.0409C103.182 17.9267 110.771 25.068 116.171 33.5891C120.401 40.2178 123.253 47.6976 124.579 55.4296C126.622 67.3933 124.954 79.9706 119.725 90.9523C119.245 92.026 118.622 93.0269 118.123 94.0912C113.042 103.399 105.42 111.321 96.2934 116.806C91.4978 119.678 86.3119 121.92 80.9004 123.366C73.5771 125.366 65.8664 125.926 58.3174 125.117C49.3163 124.148 40.5477 121.128 32.8846 116.342C24.1758 110.934 16.8947 103.29 11.955 94.3516C9.11596 89.2607 7.06827 83.7449 5.83504 78.0592C4.43865 71.5587 4.15311 64.8276 4.94717 58.23C5.87719 50.5438 8.33958 43.0438 12.1453 36.2856C15.9035 29.6206 20.952 23.6691 26.9387 18.8656C31.7764 14.9847 37.2097 11.8282 43.0115 9.59442C43.8001 9.28822 44.6023 9.01438 45.3855 8.69334C49.1192 7.51303 52.9358 6.5472 56.8286 6.06023C58.8246 5.77291 60.8383 5.63667 62.8506 5.54629ZM62.8465 6.47435C52.5646 6.81159 42.3874 9.8696 33.6528 15.2626C27.2541 19.1866 21.6264 24.3368 17.1394 30.3261C13.0169 35.8122 9.89777 42.0267 7.91536 48.5798C5.91934 55.1787 5.14296 62.1257 5.54543 69.0012C6.04579 77.9 8.64686 86.6735 13.0645 94.4325C18.4053 103.884 26.4342 111.808 35.971 117.086C43.5241 121.291 52.0262 123.801 60.6642 124.4C68.5368 124.959 76.5209 123.983 83.9991 121.472C86.6111 120.56 89.2067 119.57 91.6528 118.272C94.1315 117.089 96.4878 115.663 98.7558 114.121C107.836 107.918 115.137 99.1672 119.529 89.1312C126.144 74.293 126.153 56.7098 119.53 41.8743C115.197 31.9461 108.008 23.2793 99.0698 17.0904C97.6612 16.1286 96.2499 15.1587 94.7338 14.3683C93.2803 13.4685 91.7344 12.728 90.1952 11.9888C81.6931 8.02157 72.2324 6.13847 62.8465 6.47435Z" fill="white"/>
<path d="M65.8977 9.03472C67.2709 8.96862 68.6374 9.1912 70.0012 9.3126C70.9448 9.41107 72.0502 9.5689 72.5941 10.4444C73.2739 11.5909 73.0591 13.0235 72.7192 14.2443C72.5642 14.9295 71.8123 15.082 71.2181 15.1723C71.8055 15.4664 72.4391 15.8562 72.5805 16.5509C72.7219 17.3913 72.4826 18.2411 72.488 19.0883C72.3752 19.9219 72.4078 20.7717 72.2256 21.5946C71.2317 21.4449 70.2174 21.5002 69.2316 21.2965C69.2602 20.6072 69.3676 19.9246 69.3893 19.2353C69.4464 18.2317 69.6531 17.2227 69.5199 16.2164C69.3907 15.8765 68.9909 15.8859 68.6891 15.8482C68.5028 17.6328 68.3968 19.4255 68.2349 21.2142C67.1499 21.2169 66.0744 21.0618 64.9935 21.0024C65.003 19.5024 65.226 18.0145 65.3089 16.5172C65.5115 14.0244 65.744 11.5329 65.8977 9.03472ZM69.0195 11.3171C69.0181 12.202 68.8237 13.0761 68.8618 13.961C69.1745 13.9043 69.6545 14.0177 69.785 13.6346C70.0012 12.9763 69.9509 12.2681 69.9346 11.5855C69.6708 11.3792 69.3513 11.3009 69.0195 11.3171Z" fill="white"/>
<path d="M57.2746 9.34093C58.3174 9.14129 59.4677 9.15882 60.4005 9.71728C61.0654 10.0882 61.5467 10.7452 61.7221 11.4803C61.9927 12.608 62.096 13.7668 62.2673 14.912C62.4169 16.2973 62.6997 17.6827 62.6086 19.0829C62.4971 20.1553 61.665 21.028 60.6833 21.4138C59.5289 21.8414 58.2168 21.9966 57.0448 21.546C56.1691 21.2182 55.4757 20.4439 55.2677 19.5361C54.9876 18.3639 54.887 17.1607 54.7129 15.9723C54.5511 14.8122 54.4179 13.6481 54.3349 12.4799C54.3349 11.7623 54.5661 11.0284 55.0651 10.497C55.6253 9.85622 56.4492 9.5028 57.2746 9.34093ZM57.5927 11.5572C57.4867 12.1008 57.6131 12.6539 57.6702 13.1962C57.9218 15.0496 58.1543 16.9071 58.4058 18.7618C58.448 19.0829 58.5431 19.3945 58.6519 19.7007C58.8749 19.7007 59.0965 19.7034 59.3209 19.7034C59.4664 19.3351 59.4677 18.9372 59.4106 18.5501C59.1577 16.5402 58.8831 14.5316 58.6315 12.5203C58.588 12.117 58.4901 11.7204 58.346 11.34C58.0822 11.3306 57.726 11.2551 57.5927 11.5572Z" fill="white"/>
<path d="M77.7025 11.6314C78.4585 11.046 79.4619 10.8234 80.4055 10.9664C81.8481 11.1768 83.3628 11.9093 83.9815 13.2933C84.4343 14.4304 83.9652 15.6553 83.6361 16.7614C82.5783 16.4741 81.5191 16.1881 80.4898 15.8158C80.6747 15.1036 80.9535 14.4129 81.0745 13.6858C81.1629 13.3661 80.8189 13.2029 80.5959 13.0707C80.188 13.2056 80.0642 13.6346 79.9419 13.9961C79.7094 14.7313 79.4837 15.4678 79.2647 16.207C78.8596 17.5047 78.4775 18.8104 78.075 20.1094C78.003 20.4817 77.7759 21.0227 78.1974 21.2695C78.4544 21.368 78.7725 21.3127 78.9031 21.0469C79.2879 20.3711 79.4524 19.5968 79.6414 18.8495C79.4728 18.7146 79.3015 18.5824 79.1329 18.4489C79.262 17.908 79.4102 17.3725 79.5598 16.8356C80.139 16.8693 80.6734 17.1108 81.2281 17.2605C81.9134 17.4844 82.6245 17.6301 83.2921 17.9093C82.6762 19.9543 82.0494 21.9966 81.4416 24.0443C80.7618 23.9377 80.1118 23.707 79.4646 23.4858C79.4334 23.2093 79.3898 22.9354 79.3463 22.6616C78.8718 22.9665 78.3347 23.2605 77.7487 23.1985C76.3578 23.0663 75.0361 21.9925 74.8403 20.5843C74.7221 19.6157 75.0905 18.6823 75.3462 17.7636C75.852 16.1584 76.2748 14.5249 76.8663 12.9466C77.0621 12.4664 77.2783 11.9579 77.7025 11.6314Z" fill="white"/>
<path d="M24.6939 25.6803C25.3547 25.3337 26.2072 25.1799 26.8816 25.5778C27.4921 25.9285 28.0265 26.3993 28.5024 26.9133C27.779 27.6201 27.1807 28.4578 26.384 29.085C25.9788 28.7276 25.6198 28.2959 25.1249 28.0558C24.8027 27.9924 24.6708 28.3337 24.4981 28.5293C24.7279 29.1161 25.2174 29.6003 25.8211 29.8027C26.2194 29.8445 26.6056 29.7042 26.9849 29.6044C28.0183 29.3117 29.0653 28.9596 30.1544 28.9933C30.8206 29.0027 31.4066 29.3683 31.9233 29.7514C32.6059 30.2761 33.2776 30.8602 33.6963 31.621C33.9343 32.0216 33.9438 32.5059 33.8785 32.9538C33.5685 34.3701 32.5651 35.5693 31.3291 36.3058C30.6031 36.6876 29.7111 36.9776 28.9171 36.6188C28.0401 36.2289 27.333 35.5464 26.6641 34.8773C27.1957 34.3081 27.7137 33.7267 28.2481 33.1601C28.4045 33.0064 28.5635 32.8566 28.724 32.7069C29.3114 33.1318 29.7669 33.7172 30.3896 34.0976C30.8437 34.3782 31.3862 33.7172 31.1048 33.3045C30.7513 32.777 30.2346 32.2995 29.6105 32.1228C28.9606 32.0837 28.331 32.3022 27.7056 32.4479C26.955 32.6314 26.2031 32.8728 25.4254 32.8944C24.097 32.8067 23.05 31.8261 22.2872 30.8238C21.7515 30.121 21.7474 29.1565 22.1105 28.3768C22.6435 27.2316 23.5721 26.2712 24.6939 25.6803Z" fill="white"/>
<path d="M106.6 27.7429C106.73 27.6323 106.887 27.5554 107.04 27.4772C107.732 28.2865 108.454 29.073 109.123 29.9025C106.257 32.394 103.357 34.8464 100.481 37.327C100.277 37.4565 100.019 37.8302 99.766 37.5914C99.0753 36.863 98.4254 36.0941 97.7945 35.3131C100.704 32.7609 103.679 30.2816 106.6 27.7429Z" fill="white"/>
<path d="M15.1571 49.6226C15.5446 50.3766 15.8777 51.1563 16.257 51.9157C17.0756 52.1046 17.9199 52.1585 18.7357 52.3595C18.2068 53.0299 17.4508 53.4791 16.9382 54.163C17.062 54.9697 17.1979 55.775 17.2877 56.5871C16.5181 56.239 15.8192 55.7575 15.0483 55.4135C14.2692 55.7467 13.5377 56.1756 12.7708 56.5331C12.8701 55.6914 13.1175 54.8753 13.2277 54.0349C12.6824 53.405 12.0189 52.8816 11.5049 52.2246C12.2677 52.052 13.0563 52.0547 13.8205 51.8915C14.0353 51.824 14.1169 51.6041 14.2202 51.4315C14.533 50.8285 14.8348 50.2201 15.1571 49.6226Z" fill="white"/>
<path d="M23.9107 86.2715C24.1731 86.1056 24.4505 85.9653 24.7319 85.8345C25.1425 86.3767 25.4825 86.9676 25.8523 87.5382C26.0549 87.874 26.2452 88.2167 26.4329 88.562C23.689 90.2832 20.9003 91.9357 18.1565 93.6596C17.7119 93.8377 17.7676 94.415 18.1728 94.6092C18.5141 94.4582 18.8608 94.3152 19.1817 94.1223C21.7583 92.5305 24.343 90.9523 26.9332 89.3848C27.5533 90.1699 27.9802 91.0818 28.5445 91.9073C28.6954 92.053 28.5744 92.2513 28.4099 92.3215C26.2112 93.6582 24.0154 94.9991 21.8276 96.3548C21.2266 96.7041 20.6474 97.1034 19.9921 97.3462C19.0267 97.6093 17.9267 97.3921 17.1748 96.7217C16.5439 96.1538 16.0748 95.4213 15.739 94.6497C15.3936 93.7419 15.191 92.6493 15.7131 91.7671C16.1727 90.9685 17.0307 90.5355 17.7771 90.0431C19.8139 88.7751 21.8752 87.5422 23.9107 86.2715Z" fill="white"/>
<path d="M103.173 88.5499C103.749 87.4694 104.674 86.4645 105.921 86.1987C106.857 86.0072 107.734 86.4591 108.532 86.8813C109.025 87.1578 109.539 87.406 109.999 87.7406C110.12 87.8903 109.93 88.0481 109.879 88.1871C109.382 88.9681 108.944 89.7855 108.419 90.5504C107.478 90.1538 106.694 89.4618 105.74 89.0949C105.338 88.871 104.918 89.3741 105.04 89.7572C105.315 90.1794 105.785 90.4141 106.201 90.6772C107.837 91.6133 109.443 92.6007 111.072 93.5531C111.372 93.7055 111.667 93.9133 112.014 93.9429C112.387 93.9888 112.589 93.5261 112.502 93.2199C111.866 92.4686 110.865 92.1974 110.134 91.5661C110.716 90.6718 111.209 89.7248 111.805 88.8399C112.615 89.2257 113.367 89.7383 114.052 90.3143C115.007 91.1061 115.129 92.5144 114.754 93.6232C114.402 94.6295 113.782 95.5589 112.954 96.2415C112.174 96.8755 111.049 97.067 110.124 96.6394C108.52 95.9771 107.093 94.9708 105.591 94.1183C104.536 93.4222 103.156 92.8921 102.748 91.581C102.521 90.5693 102.64 89.4537 103.173 88.5499Z" fill="white"/>
<path d="M98.1671 95.6277C98.8863 94.8224 99.5512 93.9712 100.298 93.1902C101.735 94.3152 103.069 95.567 104.513 96.6839C106.165 98.1488 107.883 99.5355 109.552 100.983C108.873 101.845 108.139 102.664 107.416 103.489C105.018 101.415 102.568 99.4006 100.155 97.3462C99.4955 96.7689 98.7816 96.2523 98.1671 95.6277Z" fill="white"/>
<path d="M27.9041 95.2244C28.4588 94.7752 29.1387 94.3476 29.8892 94.4622C31.151 94.6322 32.1667 95.5252 32.9036 96.5018C33.4706 97.2518 33.9275 98.1974 33.7303 99.1551C33.4271 100.004 32.7119 100.613 32.0565 101.199C31.3509 100.523 30.637 99.8377 30.0442 99.0634C30.1992 98.5589 30.8546 98.3255 31.064 97.8278C31.0993 97.5998 31.0463 97.2963 30.7716 97.2572C30.2019 97.0926 29.794 97.6335 29.4799 98.0153C29.0149 98.6817 29.465 99.487 29.5697 100.195C29.8049 101.386 30.1666 102.785 29.3956 103.862C28.8314 104.67 28.1107 105.39 27.2705 105.917C26.7538 106.28 26.0726 106.264 25.4825 106.122C24.0752 105.664 22.9276 104.551 22.3185 103.225C21.9813 102.469 21.8766 101.514 22.3715 100.801C22.8474 100.08 23.462 99.4438 24.1527 98.9231C24.8325 99.6043 25.5097 100.291 26.1514 101.006C26.1474 101.045 26.1378 101.126 26.1338 101.165C25.6905 101.709 25.0569 102.081 24.668 102.67C24.441 103.125 25.0447 103.648 25.4689 103.375C25.9135 103.151 26.2452 102.757 26.5457 102.371C26.8258 102.018 26.7089 101.536 26.6939 101.125C26.5362 100.036 26.2344 98.9663 26.1977 97.8629C26.2847 96.7567 27.0733 95.8894 27.9041 95.2244Z" fill="white"/>
<path d="M36.2199 100.054C36.8304 100.384 37.3715 100.822 37.948 101.206C38.8971 101.871 39.8788 102.509 40.7068 103.323C41.3051 103.913 41.7048 104.831 41.3812 105.656C41.0468 106.546 40.4281 107.291 39.9101 108.08C39.0086 109.354 38.1343 110.647 37.2288 111.917C36.8902 112.371 36.5353 112.827 36.0717 113.16C35.5414 113.519 34.8344 113.469 34.2701 113.218C33.3917 112.827 32.6208 112.247 31.8322 111.707C31.0123 111.12 30.1475 110.594 29.3508 109.975C29.6281 109.433 30.0225 108.965 30.3624 108.463C32.3149 105.66 34.2701 102.859 36.2199 100.054ZM36.4551 105.474C35.4761 106.882 34.4904 108.286 33.506 109.69C33.389 109.851 33.3333 110.041 33.2857 110.231C33.5835 110.316 33.9574 110.525 34.2375 110.284C34.7677 109.805 35.1199 109.174 35.536 108.603C36.3083 107.479 37.0996 106.369 37.8733 105.247C38.0677 104.96 38.2581 104.664 38.375 104.338C38.3532 103.999 38.0391 103.789 37.7713 103.634C37.2818 104.21 36.8956 104.861 36.4551 105.474Z" fill="white"/>
<path d="M57.8212 109.59C59.1006 109.377 60.5011 109.523 61.6024 110.247C62.3788 110.746 62.905 111.638 62.8928 112.565C62.9009 113.367 62.8112 114.166 62.7187 114.962C62.5093 116.508 62.3734 118.066 62.0756 119.598C61.9695 120.188 61.6881 120.746 61.2462 121.158C60.4372 122.007 59.1604 122.18 58.0414 122.046C56.8354 121.893 55.5124 121.381 54.9536 120.228C54.509 119.458 54.683 118.543 54.7088 117.703C54.8448 116.469 55.0093 115.238 55.1548 114.006C55.2935 113.129 55.3397 112.225 55.6402 111.383C55.9815 110.451 56.8694 109.809 57.8212 109.59ZM58.7158 112.214C58.3895 114.444 58.1597 116.689 57.8674 118.924C57.8144 119.266 57.8252 119.618 57.9598 119.945C58.3202 120.034 58.7607 119.962 58.7906 119.519C59.1727 117.258 59.3671 114.967 59.6798 112.696C59.7383 112.311 59.7628 111.901 59.5262 111.568C59.0829 111.456 58.7362 111.785 58.7158 112.214Z" fill="white"/>
<path d="M65.2722 110.278C66.4824 110.143 67.6966 110.045 68.9108 109.953C69.853 109.953 70.9095 109.756 71.7348 110.334C72.5112 110.848 72.7301 111.836 72.8362 112.698C72.9164 113.432 73.0088 114.252 72.6159 114.917C72.3222 115.236 71.8885 115.371 71.501 115.542C72.1142 115.698 72.7913 115.943 73.0523 116.574C73.3624 117.407 73.2876 118.318 73.4263 119.185C73.4684 120.012 73.5976 120.831 73.6248 121.659C72.6485 121.738 71.6736 121.839 70.6974 121.914L70.6022 121.845C70.386 120.285 70.3643 118.698 70.125 117.14C70.0828 116.643 69.5552 116.514 69.1365 116.558C69.2004 118.392 69.5362 120.212 69.5362 122.048C68.4485 122.055 67.3743 122.287 66.2852 122.239C66.0051 118.248 65.5387 114.27 65.2722 110.278ZM68.7286 111.987C68.7748 112.895 68.8197 113.81 68.9692 114.708C69.1977 114.661 69.4519 114.672 69.6504 114.532C69.8734 114.416 69.8068 114.134 69.8326 113.93C69.8204 113.312 69.8639 112.65 69.5199 112.103C69.2561 112.063 68.9923 112.023 68.7286 111.987Z" fill="white"/>
<path d="M62.5828 23.7717C68.4525 23.4668 74.3916 24.3261 79.8875 26.4088C89.7397 30.0752 98.0569 37.5698 102.711 46.93C107.278 55.9786 108.299 66.6959 105.622 76.4513C103.391 84.6852 98.5192 92.1838 91.903 97.62C84.713 103.605 75.4399 107.073 66.054 107.259C60.7812 107.404 55.4798 106.559 50.5237 104.761C41.1419 101.393 33.0777 94.5741 28.2222 85.9275C25.4566 81.0687 23.7081 75.6433 23.1017 70.0965C22.415 63.8254 23.1411 57.4004 25.2812 51.457C28.2222 43.261 33.8119 36.024 41.0468 31.1044C47.3543 26.7366 54.9087 24.1979 62.5828 23.7717ZM62.4441 25.5158C60.3175 25.6575 58.1951 25.9299 56.1175 26.4061C48.6311 28.0478 41.6708 31.903 36.2811 37.3054C30.3121 43.265 26.2969 51.1266 25.0514 59.4427C24.1119 65.6855 24.6259 72.155 26.6491 78.1469C28.1923 82.7589 30.5962 87.0863 33.7058 90.8403C37.0942 94.9883 41.3595 98.4145 46.1048 100.925C51.6074 103.804 57.7885 105.428 64.0145 105.525C68.806 105.657 73.618 104.926 78.1471 103.366C82.8216 101.775 87.1849 99.3021 90.9634 96.1416C97.4206 90.7769 102.114 83.3497 104.137 75.2359C105.5 69.8632 105.682 64.2098 104.772 58.748C103.882 53.5398 101.935 48.511 99.0753 44.0541C96.2947 39.7025 92.6617 35.8904 88.4331 32.8985C83.9393 29.7002 78.7711 27.4367 73.3582 26.3076C69.7796 25.5293 66.0962 25.3364 62.4441 25.5158Z" fill="white"/>
<path d="M109.501 34.2568C110.282 33.8764 111.228 33.9223 111.996 34.3095C113.046 34.8193 113.744 35.8216 114.226 36.8454C114.595 37.5873 114.627 38.4493 114.493 39.2533C114.267 40.2366 113.342 40.8113 112.571 41.3576C112.07 41.6625 111.593 42.0914 110.985 42.144C110.472 41.2375 109.892 40.3688 109.412 39.4448C110.267 38.8365 111.262 38.4331 112.058 37.7452C112.354 37.5347 112.096 37.1786 111.912 36.9925C111.507 36.8009 111.094 37.0572 110.752 37.2582C108.968 38.3225 107.184 39.3868 105.414 40.4714C105.122 40.702 104.615 40.8868 104.691 41.3401C104.677 41.6827 105.101 41.9147 105.407 41.7812C106.211 41.4318 106.891 40.8275 107.724 40.5482C108.26 41.452 108.875 42.3086 109.341 43.2542C108.709 43.7587 107.97 44.1081 107.239 44.4453C106.427 44.8257 105.444 44.7569 104.672 44.3144C103.6 43.7843 102.972 42.7065 102.46 41.6827C102.122 40.7533 102 39.6175 102.612 38.7677C103.324 37.7843 104.468 37.2609 105.454 36.5986C106.821 35.8499 108.089 34.9246 109.501 34.2568Z" fill="white"/>
<path d="M113.892 51.8927C114.441 51.2519 114.699 50.3967 115.156 49.6818C115.621 50.3913 115.862 51.2141 116.305 51.9358C117.126 52.1031 117.968 52.1611 118.784 52.3661C118.172 52.961 117.513 53.5073 116.943 54.144C117.048 54.9574 117.23 55.76 117.287 56.5788C116.544 56.2416 115.866 55.7843 115.128 55.443C114.316 55.6521 113.631 56.2079 112.834 56.4804C112.865 55.6454 113.149 54.8482 113.223 54.0186C112.649 53.4129 112.029 52.8544 111.473 52.2326C112.271 52.0653 113.09 52.0343 113.892 51.8927Z" fill="white"/>
<path d="M113.967 76.6226C114.403 75.9158 114.735 75.1537 115.156 74.4387C115.595 75.1442 115.884 75.9279 116.274 76.6604C117.075 76.8371 117.893 76.9261 118.7 77.0799C118.264 77.7962 117.496 78.2157 116.951 78.8376C117.039 79.6807 117.227 80.5116 117.291 81.3587C116.682 81.039 116.093 80.6816 115.484 80.3632C115.279 80.2485 115.028 80.1636 114.805 80.2809C114.132 80.575 113.503 80.9567 112.831 81.2535C112.846 80.4644 113.133 79.7144 113.202 78.9333C113.245 78.731 113.073 78.5961 112.955 78.4639C112.463 77.9581 111.924 77.4954 111.472 76.9545C112.301 76.8331 113.141 76.7764 113.967 76.6226Z" fill="white"/>
<path d="M62.8356 26.1364C68.8155 25.7803 74.8675 26.8459 80.3891 29.1431C85.1412 31.1355 89.5017 34.0492 93.1307 37.6872C96.9569 41.4791 99.9781 46.0654 101.959 51.0564C105.479 59.873 105.622 69.9522 102.366 78.8659C99.7048 86.2338 94.7515 92.7504 88.38 97.3584C81.175 102.615 72.1277 105.317 63.1973 104.881C58.0006 104.671 52.846 103.415 48.1361 101.226C39.1717 97.0859 31.8879 89.5049 28.1692 80.4132C25.8767 74.861 24.8923 68.7787 25.3206 62.7948C25.8264 54.9454 28.8123 47.2848 33.7303 41.1189C38.9256 34.5577 46.2584 29.6773 54.3798 27.4853C57.1386 26.7393 59.9776 26.2483 62.8356 26.1364ZM61.0816 27.1251C55.8319 27.6404 50.6923 29.2349 46.0871 31.7884C39.2519 35.5478 33.6106 41.4062 30.1448 48.3572C27.4839 53.6545 26.0712 59.5749 26.1147 65.4954C26.0698 71.6101 27.5791 77.7234 30.4099 83.1528C32.6996 87.5746 35.8718 91.5391 39.6762 94.7711C43.8721 98.3539 48.8554 101.029 54.1758 102.546C63.5671 105.26 73.9932 104.292 82.6829 99.8202C90.9008 95.6655 97.5266 88.5067 100.979 80.0193C105.199 69.8484 104.718 57.8739 99.6504 48.0861C95.2015 39.2965 87.2202 32.3468 77.8574 29.1094C72.503 27.2263 66.7298 26.5802 61.0816 27.1251Z" fill="white"/>
<path d="M17.41 34.4849C17.7132 33.975 18.0232 33.4692 18.3563 32.9795C18.8173 33.1697 19.232 33.4462 19.6548 33.7066C21.6005 34.8801 23.5394 36.0631 25.4865 37.2327C26.2411 37.698 27.0583 38.1715 27.5152 38.9579C28.0101 40.0344 27.798 41.3293 27.1739 42.31C26.63 43.2071 25.8727 44.0488 24.8651 44.4292C24.0724 44.6963 23.1791 44.5681 22.4748 44.127C19.765 42.5906 17.1313 40.9287 14.4636 39.3235C14.9802 38.3712 15.5771 37.4633 16.1536 36.5461C17.0864 37.0195 17.9511 37.6144 18.8513 38.1459C20.2286 38.9768 21.6073 39.8078 22.982 40.6427C23.6387 41.0258 24.2546 41.4966 24.9916 41.7232C25.1167 41.5951 25.2458 41.4696 25.3791 41.3496C25.2363 41.0177 24.9916 40.7534 24.6748 40.5807C22.0207 38.9647 19.3489 37.3797 16.7002 35.7542C16.8471 35.2848 17.1639 34.9017 17.41 34.4849Z" fill="white"/>
<path d="M13.9156 76.62C14.4541 75.959 14.6893 75.1024 15.1761 74.401C15.5581 75.12 15.8301 75.8956 16.2502 76.5944C17.0266 76.9262 17.9254 76.8925 18.748 77.0894C18.2204 77.6951 17.5746 78.1861 17.0375 78.781C16.9314 79.6159 17.2197 80.4604 17.289 81.2967C16.6051 81.0472 16.0068 80.6276 15.3583 80.3093C15.1802 80.2108 14.9626 80.1919 14.779 80.2891C14.1033 80.5966 13.4534 80.9568 12.7776 81.267C12.8605 80.4509 13.127 79.6672 13.21 78.8538C12.7327 78.1348 11.9699 77.6344 11.4424 76.9451C12.2677 76.8507 13.1012 76.7872 13.9156 76.62Z" fill="white"/>
<path d="M75.5229 109.688C76.1592 108.541 77.4645 107.979 78.71 107.768C79.8073 107.56 81.0813 107.786 81.874 108.614C82.4709 109.4 82.8067 110.357 83.0338 111.306C81.9991 111.637 80.963 111.967 79.9147 112.253C79.6482 111.464 79.4592 110.641 79.0622 109.902C78.8052 109.887 78.5482 109.903 78.317 110.022C78.264 110.734 78.5373 111.399 78.7494 112.064C79.2185 113.674 79.7311 115.269 80.2165 116.875C80.3362 117.292 80.5347 117.68 80.7482 118.058C81.0187 118.02 81.2744 117.919 81.5177 117.796C81.5368 116.884 81.1996 116.025 80.8869 115.185C80.6707 115.183 80.4558 115.186 80.2424 115.187C80.0425 114.638 79.8589 114.08 79.7855 113.5C80.997 113.158 82.1826 112.716 83.4118 112.443C83.9584 114.166 84.4587 115.902 85.0203 117.619C85.1291 117.942 85.1916 118.278 85.2215 118.618C84.5743 118.82 83.9421 119.114 83.2568 119.15C83.1031 118.941 82.9481 118.738 82.7904 118.535C82.5933 119.09 82.2737 119.628 81.7244 119.9C80.4762 120.59 78.7481 120.347 77.818 119.247C77.3 118.689 77.1409 117.926 76.888 117.234C76.4053 115.673 75.9063 114.116 75.4563 112.546C75.2115 111.625 74.9641 110.547 75.5229 109.688Z" fill="white"/>
<path d="M49.712 89.1907C51.1179 89.3688 52.5483 89.3715 53.9528 89.1772C53.2268 89.6278 52.3334 89.5927 51.5095 89.59C50.9017 89.5347 50.2055 89.6197 49.712 89.1907Z" fill="white"/>
</svg>
