<svg xmlns="http://www.w3.org/2000/svg" width="130" height="130" viewBox="0 0 130 130" fill="none">
  <path d="M129.203 63.379L124.019 57.0851L127.412 49.6656C127.88 48.643 127.555 47.4302 126.635 46.7723L119.992 42.0399L121.34 33.9942C121.522 32.8845 120.896 31.7985 119.842 31.4021L112.2 28.5564L111.423 20.4393C111.313 19.3216 110.433 18.4338 109.307 18.3229L101.19 17.546L98.3442 9.89665C97.9479 8.84238 96.8619 8.21616 95.7521 8.39848L87.7064 9.74604L82.9741 3.10335C82.3241 2.18384 81.1113 1.85884 80.0808 2.32652L72.6613 5.71921L66.3674 0.535061C65.4954 -0.178354 64.243 -0.178354 63.379 0.535061L57.0851 5.71921L49.6656 2.32652C48.643 1.85884 47.4302 2.18384 46.7723 3.10335L42.0399 9.74604L33.9942 8.39848C32.8844 8.21616 31.7985 8.84238 31.4021 9.89665L28.5564 17.5381L20.4393 18.3149C19.3216 18.4259 18.4338 19.3058 18.3229 20.4314L17.546 28.5485L9.89665 31.3942C8.84238 31.7905 8.21616 32.8765 8.39848 33.9863L9.74604 42.032L3.10335 46.7643C2.18384 47.4223 1.85884 48.6351 2.32652 49.6576L5.71921 57.0771L0.535061 63.371C-0.178354 64.243 -0.178354 65.4954 0.535061 66.3595L5.71921 72.6534L2.32652 80.0729C1.85884 81.0954 2.18384 82.3082 3.10335 82.9662L9.74604 87.6985L8.39848 95.7442C8.21616 96.854 8.84238 97.9399 9.89665 98.3363L17.5381 101.182L18.3149 109.299C18.4259 110.417 19.3058 111.305 20.4314 111.416L28.5485 112.192L31.3942 119.842C31.7905 120.896 32.8765 121.53 33.9863 121.34L42.032 119.992L46.7643 126.635C47.4223 127.555 48.6351 127.88 49.6576 127.412L57.0771 124.019L63.371 129.203C63.807 129.56 64.3381 129.742 64.8692 129.742C65.4003 129.742 65.9314 129.56 66.3674 129.203L72.6613 124.019L80.0808 127.412C81.1033 127.88 82.3162 127.555 82.9741 126.635L87.7064 119.992L95.7521 121.34C96.8619 121.522 97.9479 120.896 98.3442 119.842L101.19 112.2L109.307 111.423C110.425 111.313 111.313 110.433 111.423 109.307L112.2 101.19L119.85 98.3442C120.904 97.9479 121.53 96.8619 121.348 95.7521L120 87.7064L126.643 82.9741C127.562 82.3162 127.887 81.1034 127.42 80.0808L124.027 72.6613L129.211 66.3674C129.925 65.4954 129.925 64.243 129.211 63.379H129.203ZM64.8533 118.423C35.2784 118.423 11.2997 94.4442 11.2997 64.8692C11.2997 35.2942 35.2784 11.3235 64.8533 11.3235C94.4284 11.3235 118.407 35.3021 118.407 64.8771C118.407 94.4521 94.4284 118.431 64.8533 118.431V118.423Z" fill="white"/>
  <path d="M64.8542 37.9738L66.8676 44.1567H73.3755L68.1121 47.9853L70.1176 54.1762L64.8542 50.3475L59.5908 54.1762L61.6042 47.9853L56.3408 44.1567H62.8487L64.8542 37.9738Z" fill="white"/>
  <path d="M64.852 116.291C51.1148 116.291 38.202 110.94 28.4916 101.23C18.7812 91.5192 13.4306 78.6064 13.4306 64.8692C13.4306 51.132 18.7812 38.2192 28.4916 28.5089C38.202 18.7985 51.1148 13.4479 64.852 13.4479C78.5891 13.4479 91.502 18.7985 101.212 28.5089C110.923 38.2192 116.273 51.132 116.273 64.8692C116.273 78.6064 110.923 91.5192 101.212 101.23C91.502 110.94 78.5891 116.291 64.852 116.291ZM64.852 14.629C51.4318 14.629 38.8123 19.8528 29.3239 29.3412C19.8355 38.8296 14.6117 51.4491 14.6117 64.8692C14.6117 78.2893 19.8355 90.9089 29.3239 100.397C38.8123 109.886 51.4318 115.109 64.852 115.109C78.2721 115.109 90.8916 109.886 100.38 100.397C109.868 90.9089 115.092 78.2893 115.092 64.8692C115.092 51.4491 109.868 38.8296 100.38 29.3412C90.8916 19.8528 78.2721 14.629 64.852 14.629Z" fill="white"/>
  <path d="M33.2266 48.7933C32.5924 49.1738 31.8949 49.3482 31.1418 49.3165C30.3888 49.2848 29.612 49.047 28.8193 48.6031C28.0345 48.1592 27.4321 47.6281 27.012 46.9939C26.5918 46.3677 26.3857 45.6781 26.3778 44.9409C26.3778 44.2037 26.5839 43.4586 27.004 42.7134C27.2894 42.1982 27.6461 41.7622 28.0583 41.3976C28.4705 41.0329 28.9065 40.7872 29.3583 40.6445L30.1113 41.6592C29.6437 41.8415 29.2473 42.0714 28.9302 42.3409C28.6132 42.6104 28.3516 42.9354 28.1296 43.3238C27.7174 44.061 27.6382 44.7586 27.8839 45.4323C28.1376 46.1061 28.7083 46.6927 29.5961 47.1921C30.4918 47.6994 31.2924 47.8897 31.9979 47.7549C32.7034 47.6281 33.2662 47.1921 33.6784 46.4549C33.8924 46.0665 34.0351 45.6701 34.0985 45.2659C34.162 44.8537 34.154 44.4018 34.0668 43.9025L35.3272 44.0214C35.4461 44.4811 35.454 44.9805 35.3589 45.5275C35.2638 46.0665 35.0735 46.5976 34.7882 47.1128C34.368 47.8579 33.837 48.4208 33.2028 48.8012L33.2266 48.7933Z" fill="white"/>
  <path d="M38.705 41.4292L32.6727 35.1195L36.8897 31.0847L37.7538 31.9884L34.6544 34.953L36.3269 36.6969L39.244 33.9067L40.108 34.8103L37.1909 37.6006L38.9586 39.4554L42.058 36.4908L42.922 37.3945L38.705 41.4292Z" fill="white"/>
  <path d="M52.5378 31.8851L51.0476 32.6381L48.7488 30.5455C48.5427 30.3473 48.3208 30.2522 48.0909 30.2442C47.861 30.2442 47.5994 30.3156 47.3061 30.4583L45.8952 31.1717L47.5281 34.4137L46.125 35.1192L42.2012 27.3192L45.5464 25.6387C46.4262 25.1948 47.2031 25.0522 47.8531 25.2028C48.511 25.3613 49.0183 25.7973 49.383 26.5186C49.6445 27.0339 49.7238 27.5491 49.6366 28.0485C49.5415 28.5479 49.2878 28.9997 48.8598 29.404C49.3671 29.2692 49.8586 29.4198 50.3421 29.8637L52.5537 31.8851H52.5378ZM47.0842 29.19C47.6153 28.9205 47.9641 28.6272 48.1226 28.3022C48.2811 27.9772 48.2573 27.6125 48.0512 27.2083C47.8531 26.8119 47.5756 26.582 47.2269 26.5186C46.8781 26.4552 46.4342 26.5503 45.8952 26.8278L44.1275 27.7156L45.3165 30.0778L47.0762 29.19H47.0842Z" fill="white"/>
  <path d="M58.0696 30.514L56.7934 23.1976L53.9952 23.6891L53.7733 22.4049L60.9629 21.1525L61.1849 22.4287L58.3708 22.9201L59.6471 30.2366L58.0775 30.514H58.0696Z" fill="white"/>
  <path d="M66.1477 29.8722L66.6629 21.1606L68.2403 21.2558L67.7251 29.9674L66.1477 29.8722Z" fill="white"/>
  <path d="M72.1703 30.5376L74.6197 22.1589L80.0892 23.7602L79.7325 24.973L75.7691 23.8156L75.0953 26.1144L78.8288 27.2004L78.4721 28.4211L74.7386 27.3352L73.6764 30.9815L72.1703 30.5376Z" fill="white"/>
  <path d="M81.1606 33.8751L85.3856 26.2336L86.7728 27.0025L82.5478 34.644L81.1606 33.8751Z" fill="white"/>
  <path d="M86.3117 37.0697L92.1617 30.5856L96.4976 34.4935L95.6574 35.4209L92.4708 32.5435L90.8537 34.335L93.8501 37.038L93.0098 37.9654L90.0135 35.2624L88.2934 37.1648L91.48 40.0423L90.6397 40.9697L86.3037 37.0618L86.3117 37.0697Z" fill="white"/>
  <path d="M100.724 39.5505L102.349 42.3249C103.071 43.5615 103.3 44.7109 103.047 45.7731C102.785 46.8353 102.064 47.7152 100.875 48.4127C99.6779 49.1182 98.5443 49.3164 97.4901 49.0231C96.4358 48.7298 95.5401 47.9609 94.8187 46.7322L93.1937 43.9579L100.732 39.5505H100.724ZM95.873 45.995C96.8876 47.731 98.2828 48.0798 100.066 47.0414C101.834 46.0109 102.207 44.6237 101.192 42.8877L100.415 41.564L95.1041 44.6713L95.8809 45.995H95.873Z" fill="white"/>
  <path d="M41.0649 56.4984C40.4149 55.7612 39.6143 55.1826 38.671 54.7704C37.7278 54.3582 36.6497 54.1521 35.4528 54.1521C34.557 54.1521 33.7247 54.2631 32.9479 54.493C32.171 54.7149 31.4418 55.032 30.768 55.4283C30.0942 55.8247 29.4759 56.3082 28.921 56.8551C28.3662 57.41 27.8589 58.0125 27.407 58.6704C26.9552 59.3283 26.5588 60.018 26.218 60.7551C25.8771 61.4923 25.5918 62.2454 25.3698 63.0064C25.1399 63.7753 24.9735 64.5362 24.8625 65.3131C24.7515 66.082 24.696 66.835 24.696 67.5643C24.696 68.9198 24.8784 70.1722 25.2351 71.3058C25.5918 72.4393 26.107 73.4222 26.7808 74.2466C27.4546 75.071 28.2631 75.7051 29.2143 76.1649C30.1656 76.6247 31.2436 76.8545 32.4326 76.8545C33.6217 76.8545 34.6204 76.6405 35.5875 76.2125C36.5546 75.7844 37.4345 75.2137 38.2271 74.4844C39.0198 73.7631 39.7174 72.9149 40.3198 71.9558C40.9302 70.9966 41.4375 69.9899 41.8418 68.9277C42.246 67.8655 42.5552 66.7875 42.7692 65.6856C42.9832 64.5838 43.0863 63.5295 43.0863 62.5228C43.0863 61.2862 42.9119 60.1606 42.5631 59.1381C42.2143 58.1155 41.7149 57.2356 41.0649 56.4905V56.4984ZM39.9156 63.7594C39.8442 64.3698 39.7412 65.0119 39.5985 65.6777C39.4558 66.3436 39.2735 67.0173 39.0515 67.6911C38.8296 68.3728 38.5759 69.0308 38.2826 69.657C37.9893 70.2911 37.6485 70.8856 37.268 71.4405C36.8875 71.9954 36.4674 72.4789 36.0076 72.8911C35.5479 73.3033 35.0406 73.6283 34.4936 73.8661C33.9387 74.1039 33.3442 74.2228 32.7101 74.2228C31.9332 74.2228 31.2436 74.0722 30.6332 73.7631C30.0229 73.4539 29.4997 73.0259 29.0796 72.4869C28.6515 71.9478 28.3265 71.2978 28.0967 70.5606C27.8668 69.8155 27.7558 69.0149 27.7558 68.1509C27.7558 67.3582 27.8588 66.5259 28.057 65.6539C28.2552 64.782 28.5326 63.9259 28.8973 63.0856C29.254 62.2454 29.6899 61.4448 30.1893 60.6838C30.6887 59.9228 31.2436 59.257 31.854 58.6783C32.4643 58.0997 33.1064 57.6478 33.796 57.307C34.4857 56.9661 35.1912 56.7997 35.9284 56.7997C36.618 56.7997 37.2125 56.9344 37.7278 57.2119C38.243 57.4893 38.671 57.8619 39.0119 58.3375C39.3528 58.8131 39.6064 59.3759 39.7729 60.018C39.9393 60.66 40.0265 61.3497 40.0265 62.0869C40.0265 62.5942 39.9948 63.149 39.9235 63.7673L39.9156 63.7594Z" fill="white"/>
  <path d="M93.5811 62.071C93.9853 62.071 94.3341 62.0155 94.6274 61.8966C94.9207 61.7777 95.1585 61.6271 95.3488 61.4289C95.539 61.2387 95.6817 61.0168 95.7689 60.7789C95.8561 60.5332 95.9036 60.2796 95.9036 60.0259C95.9036 59.7405 95.8482 59.4948 95.7451 59.2887C95.6341 59.0826 95.4914 58.9161 95.3091 58.7893C95.1268 58.6625 94.9128 58.5674 94.6591 58.5119C94.4134 58.4485 94.1518 58.4167 93.8664 58.4167C93.4225 58.4167 93.05 58.4802 92.7488 58.6149C92.4475 58.7497 92.2097 58.9161 92.0274 59.1064C91.8451 59.3046 91.7183 59.5107 91.639 59.7326C91.5597 59.9546 91.5201 60.1527 91.5201 60.3271C91.5201 60.8582 91.6866 61.2783 92.0195 61.5954C92.3524 61.9125 92.8756 62.071 93.5732 62.071H93.5811Z" fill="white"/>
  <path d="M105.366 69.0229C105.065 69.3875 104.7 69.776 104.28 70.1802C103.86 70.5924 103.408 70.965 102.948 71.3058C102.481 71.6467 102.013 71.9321 101.553 72.154C101.093 72.376 100.665 72.4869 100.285 72.4869C99.9044 72.4869 99.5794 72.4077 99.3337 72.2412C99.088 72.0747 98.8898 71.8766 98.7312 71.6308C98.5727 71.3851 98.4697 71.1156 98.4221 70.8223C98.3666 70.529 98.3428 70.2436 98.3428 69.9741C98.3428 69.7918 98.3428 69.5699 98.3666 69.3003C98.3825 69.0308 98.4221 68.7455 98.4934 68.4522C98.5648 68.1589 98.6758 67.7942 98.8343 67.3583C98.9928 66.9223 99.1514 66.5894 99.3178 66.3436C99.4843 66.1058 99.6745 65.9156 99.9044 65.765C100.134 65.6144 100.412 65.543 100.737 65.543C100.871 65.543 100.959 65.6064 100.998 65.7253C101.038 65.8442 101.062 65.9949 101.062 66.1772C101.07 66.3912 101.062 66.526 101.046 66.5894C100.927 67.0253 100.856 67.3107 100.832 67.4296C100.761 67.6595 100.824 67.9211 101.014 68.2144C101.133 68.4046 101.395 68.4997 101.799 68.4997C102.068 68.4997 102.306 68.4363 102.52 68.3174C102.734 68.1985 102.948 67.9686 103.178 67.6278C103.4 67.2949 103.551 66.9936 103.63 66.7479C103.709 66.4942 103.749 66.2406 103.749 65.9869C103.749 65.6144 103.67 65.2656 103.503 64.9485C103.337 64.6235 103.107 64.3461 102.814 64.1162C102.52 63.8784 102.171 63.6961 101.759 63.5613C101.347 63.4266 100.895 63.3631 100.412 63.3631C99.8727 63.3631 99.3812 63.4583 98.9294 63.6406C98.4776 63.8229 98.0733 64.0766 97.7087 64.3936C97.3441 64.7107 97.0191 65.0753 96.7416 65.4875C96.4642 65.8997 96.2343 66.3436 96.044 66.8034C95.8538 67.2632 95.6794 67.7942 95.5209 68.4125C95.3623 69.0229 95.2831 69.554 95.2831 69.99C95.2831 70.3863 95.3306 70.7747 95.4099 71.1552C95.2514 71.2821 95.0849 71.4089 94.9264 71.5278C94.5697 71.7973 94.213 72.0272 93.8642 72.2174C93.5154 72.4077 93.1904 72.5028 92.905 72.5028C92.6593 72.5028 92.4928 72.3997 92.4136 72.2016C92.3343 72.0034 92.2947 71.7339 92.2947 71.393C92.2947 71.0522 92.3502 70.6558 92.4691 70.2357C92.588 69.8077 92.6831 69.3796 92.7544 68.9516C92.8337 68.5235 92.9684 68.0003 93.1745 67.39C93.3806 66.7796 93.5392 66.2802 93.6422 65.8918C93.7453 65.5034 93.8404 65.1546 93.9197 64.8534C93.9989 64.5522 94.0465 64.3144 94.0465 64.1479C94.0465 63.9497 93.991 63.7912 93.8721 63.6802C93.7532 63.5613 93.5312 63.5058 93.1983 63.5058C93.016 63.5058 92.8178 63.5296 92.5959 63.5692C92.3739 63.6089 92.1599 63.6802 91.9459 63.7674C91.7398 63.8546 91.5495 63.9656 91.391 64.1083C91.2087 64.2589 91.0977 64.4333 91.0581 64.6235C90.9867 64.893 90.7965 65.4875 90.4953 66.3912C90.1703 67.501 89.9483 68.2144 89.8453 68.5394C89.7819 68.7058 89.6312 69.443 89.4014 70.7589C89.4014 70.7747 89.4014 70.7906 89.4014 70.8064C89.2983 70.8699 89.1873 70.9412 89.0843 70.9967C88.577 71.3058 88.3075 71.4564 88.2837 71.4485C88.2678 71.4485 88.0855 71.5674 87.7367 71.8211C87.6654 71.8924 87.4989 71.9717 87.2373 72.0589C87.063 72.1302 86.9282 72.1619 86.8331 72.1619C86.5715 72.1619 86.3733 72.0113 86.2544 71.7101C86.1276 71.4089 86.0721 71.0205 86.0721 70.5528C86.0721 70.2753 86.088 69.9662 86.1276 69.6333C86.1672 69.3003 86.2069 68.9595 86.2623 68.6186C86.3178 68.2778 86.3812 67.8894 86.4447 67.4613C86.516 67.0333 86.5715 66.6766 86.627 66.4071C86.6825 66.1375 86.73 65.8997 86.7617 65.7016C86.8014 65.5034 86.8172 65.3686 86.8172 65.2814C86.8172 64.7186 86.6983 64.2827 86.4605 63.9656C86.2227 63.6485 85.9056 63.49 85.5093 63.49C85.113 63.49 84.7483 63.5692 84.4233 63.7199C84.0983 63.8705 83.805 64.1479 83.5514 64.5601C83.4959 64.6473 83.4087 64.79 83.2977 64.9802C83.1867 65.1705 83.0599 65.3845 82.9251 65.6302C82.7904 65.876 82.6398 66.1375 82.4892 66.3991C82.3306 66.6686 82.188 66.9778 82.0532 67.3266C81.9184 67.6753 81.7995 67.9449 81.6965 68.1272C81.5934 68.3095 81.5142 68.4442 81.4666 68.5314H81.2288C81.2288 68.476 81.2447 68.3729 81.2684 68.2223C81.2922 68.0717 81.3239 67.8339 81.3556 67.5168C81.3953 67.1997 81.427 66.9223 81.4666 66.6766C81.5062 66.4308 81.5459 66.193 81.5776 65.9632C81.6172 65.7333 81.641 65.5192 81.6648 65.329C81.6886 65.1388 81.7044 64.9802 81.7044 64.8692C81.7044 64.4491 81.6172 64.1162 81.4508 63.8705C81.2843 63.6168 80.9831 63.4979 80.555 63.4979C80.127 63.4979 79.7861 63.6168 79.5325 63.8467C79.2788 64.0845 79.1123 64.3699 79.0252 64.7186C78.9142 65.1625 78.7953 65.7016 78.6764 66.3278C78.5575 66.954 78.4465 67.6595 78.3514 68.4442C78.3038 68.8564 78.2562 69.2449 78.2166 69.6253C77.8837 70.0455 77.5428 70.426 77.2178 70.7668C77.0514 70.9412 76.869 71.1077 76.6867 71.2662C76.4965 71.4247 76.3142 71.5753 76.1239 71.7022C75.9337 71.829 75.7514 71.9321 75.5691 72.0113C75.3867 72.0906 75.2123 72.1302 75.0459 72.1302C74.8239 72.1302 74.6733 72.0351 74.6099 71.8369C74.5386 71.6388 74.5069 71.3692 74.5069 71.0205C74.5069 70.6162 74.5703 70.1168 74.705 69.5223C74.8398 68.9278 74.9508 68.4046 75.0538 67.9369C75.1569 67.4772 75.252 67.0253 75.3312 66.5814C75.4105 66.1375 75.4501 65.7412 75.4501 65.3766C75.4501 65.1388 75.4264 64.9485 75.3867 64.8138C75.3392 64.679 75.2837 64.568 75.2044 64.4888C75.1252 64.4095 75.03 64.3619 74.927 64.3381C74.8239 64.3144 74.7129 64.3064 74.5861 64.3064C74.4989 64.3064 74.4038 64.3064 74.3166 64.3064C74.2215 64.3064 74.1343 64.3064 74.0471 64.3064C73.944 64.3064 73.841 64.3064 73.738 64.2906C73.6349 64.2827 73.5398 64.251 73.4447 64.2192C73.3495 64.1796 73.2703 64.1162 73.2069 64.0369C73.1434 63.9497 73.08 63.8705 73.0087 63.7753C72.9373 63.6882 72.8501 63.6089 72.7471 63.5375C72.644 63.4662 72.5014 63.4345 72.3111 63.4345C71.7562 63.4345 71.2093 63.5455 70.6782 63.7674C70.1471 63.9894 69.6398 64.2906 69.1562 64.6711C68.6727 65.0516 68.2288 65.4875 67.8245 65.9949C67.4203 66.5022 67.0398 67.0967 66.6831 67.7942C66.3264 68.4918 66.0648 69.1339 65.8983 69.7284C65.827 69.9821 65.7715 70.2278 65.7319 70.4735C64.8282 71.7339 64.0038 72.6296 63.2587 73.1607C62.9971 73.351 62.7514 73.5095 62.5136 73.6363C62.6325 72.4473 62.7197 71.4881 62.7752 70.751C62.8306 70.0138 62.9495 69.34 63.1319 68.7296C63.3142 68.1272 63.4093 67.6119 63.441 67.2077C63.5123 65.8839 63.5044 65.1071 63.4014 64.8692C63.3459 64.7345 63.2904 64.6235 63.2428 64.5363C63.1081 64.3302 62.8623 64.2272 62.4977 64.2272H61.9666C61.8636 64.2351 61.7684 64.2272 61.6892 64.2272C61.6099 64.2272 61.5386 64.2034 61.4751 64.1796C61.4117 64.1558 61.3562 64.14 61.3166 64.1241C61.277 64.1162 61.2294 64.0845 61.1819 64.0369C61.1343 63.9894 61.1026 63.9577 61.0788 63.9418C61.055 63.926 61.0233 63.8863 60.9758 63.8229C60.9282 63.7595 60.8886 63.7119 60.8648 63.6881C60.6745 63.4662 60.3733 63.3552 59.9532 63.3552C59.0337 63.3552 58.0904 63.7674 57.1154 64.5918C56.4416 65.1625 55.8947 65.8284 55.4745 66.5973C55.1892 67.1205 54.8959 67.7467 54.6184 68.4601C54.4837 68.5235 54.3569 68.579 54.2142 68.6345C53.8337 68.7851 53.4611 68.8644 53.0965 68.8644C52.9697 68.8644 52.8508 68.8406 52.7319 68.793C52.613 68.7455 52.5099 68.6662 52.4227 68.5632C52.3276 68.4522 52.2562 68.3095 52.2008 68.1272C52.1453 67.9449 52.1136 67.715 52.1136 67.4455C52.1136 67.2869 52.1373 67.0888 52.177 66.851C52.2166 66.6131 52.28 66.304 52.3672 65.9394C52.4544 65.5668 52.5178 65.2656 52.5575 65.0357C52.5971 64.8058 52.6209 64.6235 52.6209 64.4967C52.6209 64.3302 52.5892 64.1796 52.5258 64.0449C52.4623 63.9101 52.3752 63.7991 52.2721 63.7119C52.1611 63.6247 52.0422 63.5534 51.8916 63.4979C51.7489 63.4503 51.5983 63.4266 51.4477 63.4266C51.0117 63.4266 50.6233 63.5375 50.2825 63.7595C49.9495 63.9814 49.6483 64.2589 49.3867 64.5839C49.1251 64.9089 48.8715 65.3211 48.6337 65.8125C48.3959 66.304 48.1977 66.7003 48.0312 67.0016H47.8965C47.8806 66.6132 47.8965 66.1613 47.9361 65.6461C47.9758 65.1308 47.9995 64.7345 47.9995 64.4571C47.9995 64.2192 47.9995 64.0369 47.9837 63.9022C47.9758 63.7674 47.9361 63.6644 47.8806 63.593C47.8251 63.5217 47.738 63.4741 47.627 63.4583C47.5081 63.4424 47.3495 63.4266 47.1434 63.4266C46.9611 63.4266 46.8026 63.4345 46.6837 63.4583C46.5569 63.4741 46.4538 63.5138 46.3745 63.5692C46.2873 63.6247 46.216 63.704 46.1526 63.7991C46.0892 63.8942 46.0258 64.029 45.9623 64.1955C45.8593 64.4491 45.7562 64.7662 45.6532 65.1467C45.5501 65.5351 45.4233 66.0186 45.2806 66.5973C45.138 67.176 45.019 67.7229 44.9239 68.2302C44.8288 68.7375 44.7495 69.2449 44.6861 69.7363C44.6148 70.2278 44.5672 70.6955 44.5276 71.1394C44.488 71.5833 44.4642 71.9717 44.4642 72.3046C44.4642 72.6058 44.48 72.8991 44.5197 73.1845C44.5593 73.4699 44.6306 73.7235 44.7337 73.9455C44.8447 74.1674 44.9953 74.3497 45.1934 74.4766C45.3916 74.6113 45.6532 74.6747 45.9861 74.6747C46.1288 74.6747 46.2636 74.651 46.3825 74.6034C46.5014 74.5558 46.6123 74.4686 46.7154 74.3497C46.8184 74.2308 46.9215 74.0723 47.0245 73.8821C47.1276 73.6918 47.2306 73.4461 47.3416 73.1528L49.4819 67.4851H49.6721C49.7355 67.9607 49.8227 68.4363 49.9258 68.8961C50.0288 69.3638 50.1873 69.7839 50.4014 70.1564C50.6154 70.529 50.9087 70.8302 51.2733 71.068C51.638 71.2979 52.1215 71.4168 52.7239 71.4168C53.0569 71.4168 53.3898 71.3692 53.7148 71.2741C53.7782 71.2583 53.8416 71.2345 53.905 71.2107C53.905 71.7973 54.016 72.3442 54.2697 72.8436C54.5312 73.3747 54.9276 73.8186 55.4508 74.1753C55.9739 74.532 56.5447 74.7064 57.1709 74.7064C58.0191 74.7064 58.891 74.3022 59.7788 73.5016L59.541 74.8491C59.0416 75.2692 58.6056 75.6577 58.241 76.0144C57.8764 76.3711 57.4166 76.8546 56.8617 77.4491C56.5922 77.7345 56.3227 78.0595 56.069 78.4241C55.8075 78.7808 55.6251 79.0583 55.5062 79.2564C55.3873 79.4546 55.1812 79.8034 54.88 80.3028C54.3569 81.1985 54.119 82.0388 54.1825 82.8394C54.2221 83.2595 54.3331 83.6321 54.5154 83.9491C54.6977 84.2662 54.9276 84.5119 55.2209 84.6942C55.5142 84.8686 55.8312 85.0034 56.1721 85.0906C56.513 85.1778 56.8934 85.2174 57.2977 85.2174C57.7971 85.2174 58.2648 85.1382 58.6849 84.9875C59.105 84.8369 59.4697 84.6388 59.7709 84.401C60.0721 84.1552 60.3495 83.8619 60.5873 83.5132C60.8331 83.1644 61.0312 82.8077 61.1819 82.4589C61.3325 82.1101 61.4672 81.7217 61.5861 81.3016C61.705 80.8814 61.7843 80.501 61.8239 80.168C61.8715 79.8351 61.9111 79.4942 61.9587 79.1534C61.9745 79.0028 62.0062 78.7808 62.0459 78.5034C62.141 77.5284 62.2282 76.8625 62.3075 76.5058C62.3867 76.1491 62.5373 75.9034 62.7514 75.7686C63.0922 75.5467 63.6471 75.2058 64.416 74.7302C64.4556 74.7064 64.5111 74.6747 64.5825 74.6272C64.9788 74.3339 65.4703 73.9138 66.041 73.3747C66.0727 73.343 66.0965 73.3192 66.1282 73.2875C66.255 73.4936 66.3977 73.676 66.5562 73.8345C66.8337 74.1119 67.1587 74.326 67.5233 74.4766C67.888 74.6272 68.2605 74.6985 68.641 74.6985C69.0056 74.6985 69.3623 74.643 69.727 74.5321C70.0916 74.4211 70.4404 74.2784 70.7733 74.0961C71.1062 73.9217 71.4154 73.7235 71.6928 73.5016C71.9782 73.2875 72.2081 73.0735 72.4062 72.8595C72.6678 73.4699 72.9691 73.9296 73.3258 74.2467C73.6825 74.5638 74.1184 74.7223 74.6495 74.7223C75.0855 74.7223 75.5294 74.6192 75.9654 74.4131C76.4014 74.2071 76.8136 73.9534 77.202 73.6522C77.5111 73.4144 77.7886 73.1686 78.0501 72.9071C78.0501 72.9942 78.066 73.0814 78.0739 73.1686C78.1136 73.454 78.1849 73.7077 78.288 73.9296C78.3989 74.1516 78.5495 74.3339 78.7477 74.4607C78.9459 74.5955 79.2075 74.6589 79.5404 74.6589C79.802 74.6589 80.0319 74.6034 80.238 74.4924C80.4282 74.3894 80.6105 74.1753 80.777 73.8583L83.916 67.9528H84.1062C84.0111 68.5552 83.9319 69.126 83.8684 69.6491C83.805 70.1723 83.7733 70.6638 83.7733 71.1235C83.7733 72.2808 83.9239 73.1607 84.2251 73.7631C84.5264 74.3656 84.891 74.6668 85.3349 74.6668C85.7788 74.6668 86.191 74.6034 86.5953 74.4845C86.7459 74.4449 87.1343 74.2943 87.7605 74.0327C87.9904 73.9375 88.5294 73.676 89.3697 73.2479C89.3697 73.2717 89.3776 73.2955 89.3855 73.3192C89.4648 73.6046 89.5837 73.8424 89.766 74.0406C89.9404 74.2388 90.1703 74.3894 90.4556 74.5003C90.741 74.6113 91.0898 74.6668 91.502 74.6668C91.9617 74.6668 92.4532 74.5875 92.9684 74.429C93.4837 74.2705 93.991 74.0723 94.4825 73.8345C94.9739 73.5967 95.4416 73.3351 95.8617 73.0497C95.9648 72.9784 96.0678 72.915 96.163 72.8436C96.2581 72.9863 96.3611 73.1211 96.4721 73.2479C96.8526 73.676 97.3203 74.0247 97.8752 74.2784C98.43 74.5321 99.08 74.6668 99.8251 74.6668C100.245 74.6668 100.665 74.6034 101.078 74.4766C101.49 74.3497 101.886 74.1912 102.267 73.9851C102.647 73.7869 103.012 73.5571 103.353 73.2955C103.701 73.0418 104.018 72.7723 104.32 72.5028C105.017 71.8686 105.659 71.1473 106.262 70.3308L105.437 69.015L105.366 69.0229ZM59.4221 78.3131C59.3745 78.7016 59.327 79.0266 59.2953 79.2882C59.2636 79.5497 59.2081 79.7875 59.1367 80.0095C59.0178 80.4217 58.9148 80.7467 58.8276 80.9924C58.7404 81.2382 58.6453 81.4918 58.5343 81.7455C58.4233 81.9991 58.3282 82.1973 58.2251 82.34C58.13 82.4747 58.019 82.6016 57.8922 82.7205C57.7654 82.8394 57.6227 82.9186 57.48 82.9662C57.3294 83.0138 57.163 83.0375 56.9727 83.0375C56.4416 83.0375 56.2989 82.6808 56.5684 81.9595C56.8855 81.0955 57.3215 80.2473 57.8605 79.4071C58.4075 78.5668 58.9544 77.9644 59.5172 77.5839C59.5014 77.6869 59.4697 77.9327 59.4221 78.3211V78.3131ZM59.7154 69.3083C59.6837 69.9662 59.5251 70.6241 59.2477 71.2741C58.891 72.0985 58.4392 72.5107 57.8922 72.5107C57.5831 72.5107 57.3294 72.3522 57.1392 72.0351C56.8459 71.5436 56.7745 70.8144 56.9251 69.8552C56.9965 69.4113 57.4087 68.5552 58.1697 67.3028C58.8751 66.1217 59.6837 65.5272 60.6111 65.5272L59.7154 69.3083ZM71.6611 69.2845C71.6294 69.5302 71.5581 69.8314 71.455 70.1961C71.3441 70.5607 71.2014 70.9174 71.027 71.2583C70.8526 71.5991 70.6465 71.8924 70.4008 72.1381C70.163 72.3839 69.8934 72.5028 69.6001 72.5028C69.4178 72.5028 69.2672 72.4552 69.1483 72.368C69.0294 72.2808 68.9343 72.1619 68.863 72.0192C68.7916 71.8766 68.7441 71.7101 68.7123 71.5278C68.6806 71.3455 68.6727 71.1552 68.6727 70.9571C68.6727 70.6241 68.7203 70.2753 68.8075 69.8949C68.9026 69.5223 69.0532 69.0863 69.2831 68.5869C69.505 68.0875 69.7349 67.6753 69.9648 67.3345C70.1947 66.9936 70.4483 66.7003 70.7258 66.4308C71.0032 66.1692 71.2965 65.9631 71.6056 65.8046C71.9148 65.654 72.2398 65.5747 72.5648 65.5747L71.669 69.2686L71.6611 69.2845Z" fill="white"/>
  <path d="M35.4131 83.8778L37.7436 86.8583C38.3223 87.5955 38.5918 88.3168 38.5601 89.0065C38.5283 89.6961 38.1954 90.2827 37.5771 90.7662C36.9588 91.2497 36.3088 91.4241 35.6192 91.2894C34.9375 91.1546 34.3033 90.7187 33.7326 89.9894L32.3692 88.2534L29.4997 90.4967L28.5247 89.2522L35.3972 83.8699L35.4131 83.8778ZM34.5887 89.0937C34.9296 89.5217 35.2704 89.7833 35.6192 89.8626C35.968 89.9497 36.3168 89.8626 36.6497 89.593C36.9905 89.3235 37.1649 89.0144 37.1729 88.6577C37.1729 88.301 37.0064 87.9046 36.6655 87.4687L35.421 85.8754L33.3442 87.5004L34.5887 89.0937Z" fill="white"/>
  <path d="M43.0612 102.87L41.6898 101.919L42.4349 98.8991C42.5063 98.6217 42.4904 98.3839 42.3874 98.1778C42.2764 97.9717 42.0941 97.7814 41.8246 97.5912L40.5246 96.6875L38.4477 99.6601L37.1636 98.7644L42.1575 91.6064L45.2252 93.7467C46.0337 94.3095 46.5331 94.9199 46.7075 95.5699C46.8819 96.2199 46.7392 96.8778 46.2715 97.5436C45.9386 98.0192 45.5343 98.3363 45.0508 98.4949C44.5672 98.6534 44.0441 98.6375 43.4813 98.4552C43.8459 98.8357 43.941 99.343 43.7825 99.9772L43.0612 102.878V102.87ZM42.8313 96.7906C43.3227 97.1314 43.7429 97.29 44.1075 97.2741C44.4721 97.2583 44.7813 97.0601 45.0349 96.6955C45.2886 96.3308 45.3599 95.9821 45.249 95.6412C45.138 95.3003 44.8368 94.9595 44.3453 94.6107L42.7282 93.4772L41.2142 95.6491L42.8313 96.7827V96.7906Z" fill="white"/>
  <path d="M50.3552 105.637C49.8637 105.106 49.5466 104.472 49.4119 103.727C49.2771 102.981 49.3485 102.173 49.6101 101.293C49.8716 100.421 50.2601 99.7156 50.7753 99.1607C51.2905 98.6138 51.9009 98.2491 52.5985 98.0906C53.304 97.9241 54.057 97.9638 54.8735 98.2095C55.6899 98.4552 56.3399 98.8357 56.8393 99.3589C57.3387 99.882 57.6479 100.516 57.7668 101.253C57.8936 101.991 57.8223 102.799 57.5607 103.671C57.2991 104.551 56.9107 105.264 56.3954 105.811C55.8802 106.358 55.2777 106.723 54.5722 106.889C53.8747 107.064 53.1137 107.024 52.3052 106.778C51.4966 106.541 50.8466 106.152 50.3552 105.629V105.637ZM54.7149 105.32C55.3015 104.916 55.7454 104.218 56.0466 103.219C56.3399 102.236 56.3558 101.412 56.0783 100.754C55.8088 100.096 55.2777 99.6522 54.5088 99.4223C53.732 99.1924 53.0503 99.2717 52.4637 99.668C51.8771 100.064 51.4332 100.762 51.1399 101.753C50.8387 102.744 50.8308 103.576 51.1003 104.234C51.3698 104.892 51.893 105.344 52.6698 105.574C53.4466 105.803 54.1283 105.716 54.7149 105.312V105.32Z" fill="white"/>
  <path d="M62.4364 99.8896L65.6468 99.7707C67.0736 99.7152 68.1992 100.056 69.0157 100.785C69.8321 101.515 70.2681 102.569 70.3157 103.956C70.3632 105.343 70.0145 106.437 69.2535 107.23C68.4925 108.023 67.3986 108.443 65.9718 108.498L62.7614 108.617L62.4443 99.8896H62.4364ZM65.8212 107.214C67.8346 107.143 68.8017 106.073 68.7224 104.02C68.651 101.974 67.6047 100.991 65.5992 101.071L64.0693 101.126L64.2913 107.277L65.8212 107.222V107.214Z" fill="white"/>
  <path d="M77.3381 105.93C76.5454 105.566 75.9351 104.828 75.5149 103.711L73.6918 98.8436L75.1503 98.2966L77.0052 103.243C77.2668 103.948 77.6314 104.416 78.0991 104.662C78.5668 104.9 79.1216 104.9 79.7716 104.662C80.4058 104.424 80.8259 104.059 81.0161 103.568C81.2143 103.077 81.1747 102.482 80.921 101.784L79.0661 96.8381L80.5247 96.2911L82.3479 101.158C82.76 102.268 82.7918 103.219 82.4271 104.02C82.0625 104.82 81.3253 105.431 80.2155 105.843C79.0899 106.263 78.1308 106.295 77.3381 105.93Z" fill="white"/>
  <path d="M90.3698 99.7552C89.6405 99.8662 88.9271 99.7552 88.2454 99.4461C87.5637 99.137 86.9296 98.6138 86.3747 97.9004C85.8198 97.1949 85.4631 96.4735 85.3204 95.7284C85.1698 94.9833 85.2411 94.2699 85.5186 93.5882C85.796 92.9065 86.2716 92.2961 86.9454 91.765C87.4052 91.4004 87.8966 91.1309 88.4198 90.9565C88.943 90.7821 89.4344 90.7107 89.91 90.7583L90.2192 91.979C89.7119 91.979 89.268 92.0345 88.8716 92.1613C88.4753 92.2882 88.1107 92.4943 87.7619 92.7638C87.104 93.287 86.7552 93.9052 86.7314 94.6187C86.7076 95.3321 87.0168 96.093 87.643 96.8937C88.2771 97.7022 88.9509 98.1778 89.6485 98.3284C90.346 98.479 91.0357 98.2888 91.7015 97.7656C92.0503 97.4961 92.3277 97.179 92.5497 96.8302C92.7637 96.4815 92.9302 96.0534 93.0412 95.562L94.1588 96.1485C94.0954 96.6162 93.9131 97.0839 93.6198 97.5516C93.3265 98.0193 92.946 98.4315 92.4863 98.7961C91.8125 99.3272 91.107 99.6443 90.3777 99.7552H90.3698Z" fill="white"/>
  <path d="M99.9619 90.7979L93.9058 86.4857L92.257 88.8003L91.1948 88.0473L95.4278 82.1022L96.49 82.8552L94.8333 85.1857L100.889 89.4979L99.9619 90.7979Z" fill="white"/>
</svg>