<svg width="125" height="125" viewBox="0 0 125 125" fill="none" xmlns="http://www.w3.org/2000/svg">
<g id="344 1" clip-path="url(#clip0_328_339)">
<g id="#fefefeff">
<path id="Vector" d="M58.7571 0.409107C59.9724 -0.188753 61.092 0.9948 62.3212 0.92702C63.4287 1.0452 64.3814 0.308305 65.4541 0.223145C66.346 0.376085 67.1248 0.878357 67.9576 1.20336C68.8912 1.41017 69.8214 1.16338 70.7167 0.913116C72.3475 0.591593 73.4741 2.16445 75.0127 2.28785C75.9359 2.15576 76.8869 1.99761 77.8153 2.19052C78.5281 2.39039 79.0219 2.98129 79.6599 3.31846C80.0667 3.53223 80.4927 3.71124 80.936 3.83637C81.4663 3.92501 81.974 3.65215 82.506 3.70081C83.2831 3.76164 84.0342 4.08664 84.587 4.64105C85.1747 5.22327 85.8909 5.66471 86.682 5.91324C87.4417 6.03316 88.2624 5.80201 88.9752 6.17741C90.1452 6.68489 90.6633 8.07353 91.9186 8.4385C92.7027 8.84866 93.678 8.5254 94.396 9.08502C95.4635 9.62379 95.7817 10.9655 96.8648 11.4799C97.6558 11.944 98.652 11.8658 99.3979 12.4271C100.361 13.0007 100.608 14.2051 101.442 14.9055C101.945 15.3365 102.592 15.5329 103.202 15.7588C103.831 15.99 104.356 16.4522 104.741 16.9962C105.177 17.6671 105.392 18.4874 105.992 19.0453C106.554 19.5771 107.326 19.7839 107.959 20.208C108.482 20.6112 108.969 21.1187 109.179 21.76C109.421 22.403 109.629 23.0982 110.127 23.6005C110.798 24.3443 111.876 24.605 112.439 25.4619C113.042 26.2683 113.018 27.3441 113.52 28.2026C114.018 29.1394 115.137 29.4852 115.711 30.3612C116.314 31.1172 116.17 32.1495 116.512 33.0116C116.897 34.428 118.656 34.9581 118.898 36.4493C118.906 37.2505 118.955 38.0569 119.251 38.8129C119.543 39.8591 120.614 40.4118 120.984 41.4164C121.455 42.4505 120.92 43.6375 121.33 44.6837C121.613 45.6222 122.46 46.2531 122.736 47.1986C123.294 48.3439 122.406 49.5744 122.82 50.7475C123.228 51.8407 124.132 52.7809 124.12 54.0079C123.953 54.8769 123.463 55.7024 123.63 56.6201C123.891 57.7828 124.878 58.7873 124.625 60.0473C124.383 60.9163 123.891 61.7488 123.962 62.6803C123.992 63.7196 124.755 64.6043 124.649 65.6575C124.506 66.8758 123.447 67.8595 123.618 69.1351C123.634 69.8581 124.124 70.4838 124.122 71.2103C124.019 72.3643 123.204 73.2593 122.811 74.3091C122.41 75.4961 123.296 76.7387 122.726 77.8927C122.448 78.7617 121.692 79.3578 121.377 80.206C120.878 81.287 121.481 82.5401 120.97 83.6193C120.668 84.464 119.871 84.9767 119.454 85.7501C119.223 86.2245 119.113 86.7459 118.997 87.2586C118.851 87.8443 119.018 88.4839 118.743 89.04C118.38 89.949 117.516 90.4773 116.923 91.2125C116.314 92.0346 116.332 93.0878 116.088 94.0384C115.593 95.3176 114.094 95.7816 113.484 96.9843C113.007 97.7959 113.027 98.8213 112.423 99.5669C111.745 100.533 110.466 100.834 109.824 101.835C109.249 102.655 109.148 103.726 108.471 104.485C107.786 105.141 106.806 105.323 106.062 105.891C105.219 106.626 105.125 107.888 104.262 108.615C103.447 109.425 102.15 109.395 101.343 110.217C100.54 110.94 100.285 112.15 99.2901 112.68C98.5582 113.179 97.6106 113.1 96.8613 113.554C95.7921 114.081 95.4218 115.375 94.3734 115.935C93.6154 116.524 92.5897 116.199 91.7656 116.63C90.6581 117.077 90.14 118.293 89.0656 118.794C88.3475 119.263 87.4661 119.02 86.6664 119.117C85.8736 119.354 85.1608 119.811 84.5801 120.396C83.8203 121.154 82.6694 121.526 81.6193 121.243C80.4336 120.998 79.4252 121.863 78.5212 122.499C77.8501 123.022 76.9634 122.942 76.1671 122.911C75.5204 122.854 74.8423 122.607 74.2182 122.908C73.109 123.346 72.1267 124.298 70.8454 124.123C69.8874 123.891 68.8895 123.615 67.9055 123.858C67.0518 124.173 66.2469 124.755 65.2941 124.668C64.0632 124.764 62.9488 123.592 61.7335 124.133C60.9668 124.387 60.1984 124.743 59.3691 124.668C58.2321 124.698 57.368 123.66 56.2188 123.775C55.1757 123.648 54.2038 124.366 53.1659 124.065C52.2983 123.867 51.596 123.294 50.7945 122.943C49.6053 122.753 48.3953 123.059 47.2061 122.873C46.2012 122.6 45.5214 121.715 44.5443 121.373C43.5742 121.203 42.5606 121.503 41.6079 121.187C40.4987 120.89 39.8971 119.778 38.8575 119.347C37.9604 118.778 36.799 119.409 35.9071 118.827C34.8901 118.311 34.3633 117.178 33.3062 116.722C32.6543 116.359 31.891 116.368 31.173 116.26C30.4272 115.972 29.7874 115.454 29.3388 114.793C28.8294 114.07 28.1392 113.418 27.2491 113.227C26.5084 113.088 25.7435 112.869 25.1906 112.331C24.4048 111.641 24.1335 110.511 23.2347 109.934C22.5167 109.423 21.5709 109.385 20.8842 108.82C19.9054 108.152 19.8028 106.832 18.9613 106.048C18.2329 105.259 17.0419 105.144 16.3448 104.317C15.6163 103.542 15.5954 102.379 14.9174 101.576C14.3089 100.82 13.3023 100.549 12.6764 99.8119C12.014 99.1098 11.8853 98.1122 11.6002 97.2293C11.0978 95.8911 9.42527 95.5244 8.93499 94.1827C8.40299 93.2233 8.73853 91.9911 7.96661 91.143C7.20859 90.2253 6.05071 89.4954 5.91162 88.2076C5.91858 87.2656 5.94292 86.2332 5.29791 85.4668C4.82849 84.8376 4.15045 84.4049 3.66018 83.7966C3.54543 82.6217 3.78883 81.4312 3.60454 80.2633C3.19598 79.3874 2.47447 78.6992 2.10937 77.8041C1.97029 76.5719 2.21369 75.3275 2.05026 74.0988C1.66604 73.1933 0.887161 72.4251 0.874991 71.391C0.795017 70.4977 1.29399 69.6791 1.23314 68.7875C1.28703 67.8299 0.652454 67.0444 0.382976 66.1684C0.290832 65.3916 0.304741 64.5799 0.659409 63.8639C0.902808 63.3929 0.913239 62.8594 0.897592 62.3414C0.984521 61.4186 0.229982 60.6695 0.341251 59.7397C0.151747 58.4693 1.31311 57.5116 1.2314 56.2586C1.29572 55.3079 0.739383 54.4302 0.885422 53.4743C0.953227 52.2456 2.24672 51.4375 2.10416 50.1722C2.12676 49.1833 1.99811 48.1909 2.11285 47.2055C2.46752 46.3296 3.18381 45.6674 3.59411 44.8228C3.76275 43.9538 3.59933 43.057 3.67235 42.1793C3.91053 40.5891 5.66648 39.7914 5.86816 38.1924C5.97073 37.5372 5.76732 36.8281 6.08026 36.2129C6.54794 34.859 8.17002 34.3011 8.47775 32.8534C8.55077 31.6959 8.86893 30.4307 9.82166 29.6764C10.498 29.1516 11.2629 28.6389 11.5933 27.8098C11.9045 26.8957 12.014 25.8338 12.7564 25.1386C13.3214 24.5094 14.1698 24.2557 14.7644 23.6648C15.5659 22.8427 15.5641 21.5653 16.343 20.7259C17.0402 19.9004 18.2311 19.7822 18.9578 18.9949C19.7697 18.2371 19.8862 16.9875 20.7868 16.3028C21.5187 15.6528 22.5688 15.6146 23.3408 15.0323C24.1266 14.4571 24.3978 13.449 25.0967 12.7938C25.554 12.3176 26.1625 12.0048 26.8162 11.904C27.6715 11.7632 28.4991 11.3444 29.0189 10.6353C29.6083 9.84451 30.2898 8.98248 31.2982 8.75133C32.3152 8.73395 33.3723 8.45762 34.1303 7.74679C34.6971 7.20976 35.1856 6.56497 35.9002 6.20869C36.7573 5.67687 37.83 6.20522 38.7062 5.73249C39.4069 5.51177 39.9076 4.96952 40.4483 4.50549C41.2915 3.78423 42.4893 3.52354 43.5586 3.83463C44.6069 3.85896 45.5058 3.14988 46.3316 2.57809C47.3904 1.80469 48.783 2.14881 49.9826 2.28611C51.4534 2.09319 52.5609 0.65416 54.1308 0.906164C55.0887 1.11124 56.0867 1.47448 57.069 1.15643C57.6375 0.923544 58.173 0.612448 58.7571 0.409107ZM58.3329 6.31123C56.9473 6.51979 55.5408 6.5389 54.1534 6.72313C53.3676 6.92126 52.5713 7.07941 51.7663 7.16979C46.914 8.11524 42.1729 9.67941 37.7396 11.8797C28.6208 16.3115 20.759 23.279 15.2338 31.7759C11.3081 37.8153 8.52295 44.6073 7.17034 51.6842C6.8122 52.906 6.86262 54.1956 6.53577 55.4226C6.36539 56.0396 6.47144 56.6861 6.36713 57.3118C6.11851 58.6882 6.39842 60.1029 6.12025 61.4777C5.98464 62.4683 6.29584 63.4416 6.24543 64.4322C6.24195 65.2404 6.2715 66.0485 6.24543 66.8584C6.3028 66.7611 6.36017 66.6655 6.41754 66.5699C6.38625 67.3103 6.41233 68.0507 6.42971 68.7893C6.43145 69.4775 6.70267 70.1258 6.76526 70.8071C6.81915 71.6117 6.94259 72.4129 7.13557 73.1968C9.10189 83.6176 14.1403 93.4423 21.4336 101.143C23.1165 103.055 25.048 104.729 27.0213 106.333C34.3129 112.28 43.1326 116.328 52.3887 118.003C53.7379 118.147 55.0505 118.568 56.4153 118.568C57.8183 118.53 59.1831 118.98 60.5861 118.917C62.0952 118.921 63.6042 118.935 65.1116 118.905C66.3738 118.763 67.6325 118.549 68.9069 118.559C70.1743 118.493 71.3913 118.088 72.6535 117.989C77.7423 117.023 82.7198 115.407 87.3635 113.099C93.3007 110.163 98.7198 106.178 103.271 101.366C110.565 93.7777 115.591 84.0521 117.686 73.7477C117.771 72.5919 118.272 71.5023 118.235 70.3343C118.381 68.9857 118.536 67.637 118.726 66.2936C118.771 63.704 118.766 61.1127 118.727 58.5249C118.527 57.0285 118.267 55.5373 118.199 54.0288C117.658 51.4062 117.185 48.761 116.368 46.2044C114.565 40.1859 111.716 34.4871 108.014 29.4105C100.916 19.6223 90.5973 12.1908 79.0184 8.66443C77.179 8.08917 75.2961 7.66163 73.4237 7.20628C72.4796 7.10027 71.5391 6.94559 70.6159 6.71444C69.0773 6.5389 67.5334 6.43984 65.993 6.28169C64.3205 6.01056 62.6185 6.16872 60.9321 6.12701C60.0558 6.07139 59.2074 6.33035 58.3329 6.31123Z" fill="black"/>
<path id="Vector_2" d="M56.307 8.39128C56.8025 8.32002 57.2945 8.20358 57.8004 8.21401C61.0498 8.17751 64.3009 8.16535 67.552 8.22617C68.7986 8.35131 70.0156 8.72845 71.276 8.74583C72.2131 8.85532 73.1085 9.20812 74.0543 9.28633C80.2436 10.6767 86.2347 13.049 91.5843 16.4798C96.607 19.6776 101.129 23.6749 104.839 28.3379C108.907 33.4597 112.134 39.2714 114.147 45.502C115.025 48.0325 115.592 50.6533 116.115 53.2725C116.128 54.5203 116.55 55.716 116.642 56.9552C116.675 57.8833 116.616 58.82 116.797 59.7377C116.846 61.5921 116.853 63.4517 116.792 65.3044C116.547 66.4514 116.773 67.635 116.54 68.782C116.47 69.8961 116.07 70.9597 116.1 72.0824C115.759 73.6518 115.418 75.2229 115.011 76.7767C113.191 83.4678 110.1 89.8201 105.893 95.3381C98.4029 105.351 87.3213 112.613 75.1513 115.488C74.1812 115.785 73.1659 115.867 72.1871 116.128C70.9075 116.453 69.5688 116.374 68.2874 116.675C67.1939 116.965 66.0464 116.72 64.9424 116.962C63.3151 117.005 61.6844 117 60.0553 116.967C58.9496 116.731 57.8004 116.955 56.7034 116.661C55.928 116.46 55.1213 116.496 54.3389 116.35C53.3358 116.319 52.3882 115.956 51.399 115.827C38.325 113.18 26.3584 105.45 18.5331 94.6534C14.5813 89.2605 11.638 83.1324 9.90808 76.6759C9.57253 75.5827 9.40042 74.4495 9.08747 73.3512C9.01272 72.3883 8.79018 71.4498 8.57286 70.5131C8.43203 68.5405 8.18863 66.58 8.00782 64.6109C7.99739 63.2188 7.99739 61.825 8.00782 60.4329C8.17994 58.4638 8.43551 56.5033 8.56938 54.5307C8.91709 53.2898 8.98142 51.9968 9.32044 50.7576C11.3059 41.649 15.7253 33.0947 21.9529 26.1585C23.2081 24.7525 24.5416 23.4055 25.969 22.1733C27.9927 20.2199 30.2719 18.5532 32.6016 16.9872C38.165 13.3028 44.4378 10.7097 50.9487 9.27417C51.9971 9.20465 52.9724 8.7128 54.0295 8.72497C54.7962 8.685 55.549 8.5112 56.307 8.39128ZM58.4871 9.9485C58.1725 9.91547 57.8908 10.0441 57.6718 10.2613C60.8377 10.2978 64.0071 10.3065 67.1713 10.2579C66.9348 10.058 66.6549 9.91547 66.3403 9.95023C63.722 9.93112 61.1037 9.93633 58.4871 9.9485ZM52.8229 10.8592C52.317 11.0538 51.7676 10.9461 51.2425 11.0173C50.6532 11.1981 50.1003 11.5526 49.4605 11.5161C48.8329 11.4988 48.3356 11.9784 47.7185 12.0236C47.0143 12.0949 46.3919 12.4685 45.7069 12.6232C38.7735 14.9469 32.3339 18.7374 26.946 23.6801C25.3952 25.2513 23.761 26.7459 22.3458 28.4439C19.5867 31.6522 17.2953 35.2411 15.3672 39.002C13.5921 42.5596 12.2551 46.3328 11.3024 50.1824C11.3024 50.9731 10.9199 51.6874 10.7843 52.4504C10.7843 53.4063 10.5392 54.3326 10.2784 55.245C10.2853 56.2861 10.0437 57.308 10.0854 58.3525C10.0367 59.2093 10.2819 60.0401 10.3271 60.8934C10.5653 59.6543 10.3045 58.3734 10.5374 57.1325C10.6331 56.5728 10.5618 56.0045 10.6192 55.4432C10.7061 55.0139 10.8869 54.6107 10.9912 54.1849C11.1894 53.5783 11.0642 52.9318 11.1477 52.3096C11.3233 51.7743 11.664 51.2721 11.6327 50.6881C11.6188 50.2797 11.6866 49.88 11.8883 49.5202C12.2343 48.8858 12.1039 48.1263 12.4481 47.4902C15.4124 37.5613 21.4539 28.5812 29.4809 22.0343C34.5697 17.9084 40.406 14.6705 46.6649 12.7136C47.3325 12.3764 48.1062 12.4112 48.772 12.0758C49.0919 11.9193 49.4396 11.8429 49.796 11.8498C50.3732 11.8689 50.8427 11.4762 51.3868 11.351C51.9119 11.2902 52.4647 11.4032 52.9707 11.2137C53.4731 11.0625 53.9477 10.7636 54.4919 10.8088C55.4134 10.821 56.3522 10.8453 57.2302 10.5185C56.2635 10.4195 55.2899 10.4629 54.3198 10.4664C53.7913 10.4508 53.3184 10.7184 52.8229 10.8592ZM67.7972 10.5394C69.0107 10.887 70.2851 10.8418 71.5334 10.774C71.0431 10.3569 70.3946 10.4803 69.807 10.4595C69.1359 10.4681 68.4596 10.416 67.7972 10.5394ZM71.3751 11.0434C71.9158 11.3128 72.5156 11.3597 73.1102 11.3337C73.8091 11.252 74.3429 11.862 75.0296 11.8464C75.885 11.7681 76.5804 12.3816 77.4201 12.439C82.7193 14.0518 87.7768 16.485 92.3127 19.6707C95.6386 21.9648 98.6115 24.7281 101.332 27.707C105.611 32.4204 108.94 37.9732 111.247 43.8996C111.929 45.6185 112.409 47.4051 112.97 49.1639C113.071 49.5289 112.85 50.1128 113.351 50.2258C113.356 49.7444 113.388 49.2612 113.32 48.785C113.137 48.2723 112.915 47.7753 112.803 47.24C111.371 42.438 109.194 37.8689 106.475 33.663C100.051 23.7983 90.1864 16.2399 79.0075 12.5537C78.4198 12.4147 77.8896 12.0705 77.2793 12.0306C76.6013 12.0028 76.0467 11.4988 75.3617 11.5109C75.007 11.5092 74.6663 11.4119 74.3446 11.2711C73.4249 10.814 72.3609 10.9861 71.3751 11.0434ZM62.7119 14.6219C62.4215 15.5673 62.1955 16.5441 61.733 17.4252C60.749 17.4148 59.7633 17.4339 58.7792 17.4165C58.7618 17.6633 58.7444 17.9084 58.7253 18.1552C59.4225 18.7009 60.1336 19.231 60.8638 19.735C60.9855 20.7986 60.2883 21.7076 60.1457 22.733C60.1301 23.0562 60.5074 23.0162 60.7229 23.011C61.4653 22.6391 62.0321 21.9874 62.7605 21.5876C63.0561 21.5598 63.4038 21.5216 63.6403 21.7458C64.2592 22.2064 64.8903 22.6513 65.4953 23.1327C65.5979 23.0892 65.8048 23.0023 65.9073 22.9606C65.9838 22.0552 65.5544 21.2435 65.2571 20.4197C65.0694 20.0895 65.3197 19.735 65.5805 19.5368C66.2099 19.0606 66.8531 18.6036 67.4964 18.1482C67.4547 17.8893 67.4738 17.5886 67.2252 17.4287C66.2846 17.354 65.3058 17.5417 64.3878 17.3435C63.9428 16.4937 63.7237 15.5482 63.4386 14.6375C63.1969 14.634 62.9535 14.6288 62.7119 14.6219ZM41.3205 21.8396C41.0997 22.3749 40.912 22.9259 40.6529 23.4473C40.5625 23.6749 40.3261 23.8435 40.0774 23.8296C39.5472 23.847 39.0169 23.8261 38.4867 23.8539C38.7335 24.6186 39.5559 24.9124 40.0531 25.4807C39.8375 26.1116 39.5611 26.7372 39.6028 27.4202C40.3261 27.3108 40.8424 26.7477 41.4492 26.3948C42.0472 26.7668 42.5706 27.3837 43.3268 27.389C43.3025 26.7059 42.9339 26.1011 42.8835 25.4233C43.4259 24.9332 43.9927 24.4622 44.443 23.8783C43.718 23.7896 42.9669 23.9287 42.268 23.6732C42.0264 23.0301 41.8299 22.3315 41.3205 21.8396ZM83.1383 22.1056C83.0114 22.62 82.8671 23.1292 82.721 23.6402C82.0326 23.8991 81.2989 23.8261 80.5809 23.8487C80.7443 24.5317 81.4241 24.8324 81.9178 25.2443C81.9491 25.969 81.8135 26.6851 81.4919 27.3386C82.3351 27.5089 82.8514 26.7216 83.5382 26.3931C84.1484 26.7668 84.63 27.4932 85.4367 27.3577C85.2993 26.7094 84.929 26.0872 85.0142 25.4077C85.4836 24.8672 86.1008 24.4674 86.525 23.8783C85.9409 23.8157 85.3532 23.8574 84.7691 23.814C84.0319 23.5932 83.9346 22.7677 83.9311 22.1142C83.6668 22.1125 83.4026 22.109 83.1383 22.1056ZM97.0347 33.232C96.7565 33.5883 96.6661 34.2 96.1584 34.2956C95.9168 34.3669 95.6734 34.4295 95.4352 34.5059C95.4404 34.9282 95.9637 35.0812 96.2036 35.368C96.1045 35.7816 95.9794 36.1883 95.9116 36.6071C96.3253 36.4785 96.7078 36.263 97.1251 36.1448C97.5371 36.1848 97.8831 36.4472 98.2551 36.6141C98.2447 36.1813 98.2221 35.7503 98.2065 35.3193C98.4585 35.076 98.7002 34.8188 98.8758 34.5129C98.4168 34.3791 97.8605 34.313 97.6136 33.8455C97.4084 33.6613 97.3598 33.2042 97.0347 33.232ZM27.492 33.3884C27.3424 33.6752 27.2034 33.9654 27.059 34.2557C26.6905 34.2887 26.3306 34.3756 25.9777 34.4833C26.2211 34.8118 26.5218 35.0899 26.8087 35.3836C26.727 35.792 26.6261 36.1987 26.5792 36.6141C26.9408 36.4976 27.2694 36.2995 27.6258 36.1744C28.0865 36.0927 28.4482 36.4681 28.8515 36.6262C28.8602 36.1605 28.8515 35.6964 28.8359 35.2324C29.0254 35.0864 29.2149 34.9404 29.4026 34.7927C29.3957 34.6258 29.3905 34.4607 29.3853 34.2956C29.1001 34.2956 28.8167 34.2956 28.5334 34.3008C28.3751 34.0106 28.2291 33.7134 28.0883 33.4145C27.8883 33.4075 27.6901 33.3988 27.492 33.3884ZM72.8755 33.6717C72.6008 33.8107 72.2027 33.875 72.1227 34.2192C71.7368 35.1577 71.7385 36.1917 71.469 37.1615C71.3369 37.6777 71.1683 38.1904 71.1231 38.724C71.0813 39.6381 70.7058 40.4932 70.5928 41.3969C70.4259 42.6744 69.8052 43.9187 68.7082 44.6435C68.2596 44.1447 68.7377 43.5225 68.8212 42.975C69.0333 41.9149 69.2367 40.853 69.4784 39.798C69.5809 38.9273 69.9287 38.1018 69.9339 37.2189C69.4853 37.2171 69.035 37.2067 68.5882 37.2345C68.1032 37.2536 67.6981 37.6221 67.2043 37.5891C66.4394 37.6151 65.5857 37.4118 64.9111 37.881C63.4594 38.7413 62.6806 40.3524 62.2268 41.9183C61.9956 42.5006 62.0929 43.1332 62.0356 43.7415C61.82 44.2159 61.4253 44.5931 60.9872 44.8659C60.5943 45.0519 60.111 44.7269 60.1423 44.3011C60.3717 42.2729 61.1089 40.3194 61.2202 38.2756C60.4413 38.2217 59.6624 38.2929 58.9687 38.677C58.7375 39.977 58.3654 41.2492 58.1881 42.5579C58.0177 43.4217 57.6596 44.2629 57.7274 45.1579C57.6874 45.7662 58.1446 46.2493 58.5862 46.6021C59.0504 46.6699 59.5268 46.6578 59.9927 46.6091C60.8707 46.404 61.3853 45.5733 62.1555 45.1822C62.6597 45.5038 63.0526 46.1468 63.7098 46.112C64.5443 46.1816 65.2363 45.6254 65.9734 45.3247C65.7909 45.575 65.6518 45.8826 65.3649 46.0338C64.5391 46.5274 63.7081 47.1357 63.3065 48.0412C63.263 48.4722 63.1535 49.0092 63.5238 49.3342C64.0905 50.1824 65.311 50.0485 66.0986 49.6071C67.2982 49.084 67.8563 47.737 68.0232 46.517C68.1171 45.8635 68.6126 45.2726 69.2367 45.0675C70.0764 45.0032 70.9231 45.1423 71.7646 45.031C71.9663 44.9389 72.1436 44.7877 72.1627 44.5531C72.6669 42.7804 72.9225 40.952 73.3832 39.1706C73.5223 38.7605 73.8091 38.4233 74.0647 38.0827C74.3533 38.0879 74.6436 38.0896 74.934 38.0913C74.9444 38.5276 74.9514 38.9638 74.9427 39.4C74.9931 40.6027 74.2229 41.6733 74.3898 42.8916C74.176 43.9743 75.3843 44.9111 76.3857 44.4679C76.9107 44.1395 77.6079 43.738 77.5818 43.0289C77.1854 42.7891 76.8082 42.5231 76.4587 42.2225C76.8203 41.0441 77.1003 39.8449 77.3506 38.6405C77.4201 37.8845 77.5001 36.9165 76.7334 36.475C75.765 36.0892 74.7358 36.5272 73.8804 37.0034C73.8039 35.7625 74.5428 34.6397 74.4246 33.3884C73.8926 33.3797 73.3588 33.4423 72.8755 33.6717ZM56.0323 35.0099C55.881 35.5417 55.6428 36.0614 55.6376 36.6245C55.622 37.3631 55.3629 38.0635 55.2152 38.7796C55.1195 39.115 55.1213 39.4974 54.8848 39.7754C54.2172 39.9597 53.5305 40.0605 52.8594 40.2221C52.8507 39.9023 52.8385 39.5825 52.849 39.2627C52.8855 37.9123 53.7113 36.6436 53.4696 35.2828C52.423 35.2585 51.4077 35.5921 50.5071 36.1048C49.1041 36.9304 47.7515 38.1383 47.3394 39.7737C47.1691 40.3211 47.4159 40.8808 47.708 41.3361C48.0592 41.5655 48.4834 41.642 48.8763 41.4682C48.6921 40.0657 48.9893 38.5623 49.9803 37.5074C50.2029 37.205 50.7071 36.7548 50.9557 37.2849C50.8096 38.3885 50.455 39.4504 50.2689 40.5471C50.1716 41.5342 49.7856 42.4658 49.6882 43.453C49.3736 44.9094 49.0363 46.3623 48.8137 47.8344C49.577 47.8448 50.3576 47.8952 51.0895 47.631C51.2703 47.0123 51.3329 46.3693 51.4825 45.7436C51.8858 44.3202 51.9519 42.8169 52.4995 41.4317C53.1862 41.2736 53.8869 41.1971 54.5927 41.2284C54.598 41.7602 54.591 42.299 54.4311 42.8116C54.0051 44.2211 53.9286 45.7123 53.4244 47.1027C54.0903 47.452 54.8831 47.3112 55.5629 47.0731C56.1801 46.4596 56.0705 45.5229 56.2826 44.7443C56.6373 43.4373 56.7555 42.0852 57.1293 40.7817C57.2719 39.5982 57.6665 38.465 57.8039 37.2797C57.9238 36.3829 58.5393 35.4566 58.0803 34.565C57.3953 34.6988 56.7068 34.824 56.0323 35.0099ZM60.1457 34.9908C59.7406 35.3089 59.3112 35.7312 59.2886 36.2769C59.2139 36.774 59.6468 37.1337 60.0032 37.4014C60.5317 37.4952 61.1263 37.4552 61.4688 36.9843C62.1399 36.4785 62.0164 35.4549 61.3975 34.9595C60.9802 34.9613 60.5595 34.9369 60.1457 34.9908ZM22.7561 45.1892C22.7561 45.2969 22.7561 45.5107 22.7561 45.6185C22.9595 45.7297 23.149 45.9174 23.3976 45.9087C30.8422 45.9139 38.2902 45.9104 45.7365 45.9104C45.8634 45.7071 45.9921 45.502 46.1224 45.3004C45.8512 45.144 45.6078 44.8694 45.2688 44.9042C38.0294 44.8972 30.79 44.9059 23.5506 44.8989C23.2481 44.8538 22.9995 45.0397 22.7561 45.1892ZM81.6866 45.0519C81.6866 45.2778 81.6866 45.5055 81.6901 45.7332C82.0639 45.8201 82.4394 45.9226 82.8288 45.9104C88.9799 45.9157 95.1327 45.907 101.285 45.9139C101.666 45.9522 101.969 45.6862 102.29 45.5246C102.226 45.4047 102.101 45.1666 102.037 45.0467C101.202 45.0223 100.355 45.1023 99.533 44.925C99.0045 44.826 98.4933 45.0519 97.9683 45.038C95.8229 45.0397 93.6775 45.0328 91.5321 45.0415C90.8315 45.0727 90.143 44.7825 89.4441 44.9424C88.6426 45.1075 87.815 45.0588 87.0153 44.9181C85.9739 44.8955 84.9186 44.8277 83.8876 45.0189C83.1557 45.0762 82.4185 45.031 81.6866 45.0519ZM113.561 50.5039C113.575 51.2651 113.309 52.1671 113.838 52.8119C113.819 52.0541 114.125 51.1226 113.561 50.5039ZM50.787 52.6381C50.7436 53.5262 50.3506 54.3465 50.255 55.2259C50.1733 56.0549 49.8204 56.8283 49.7265 57.6573C49.6361 58.4811 49.3232 59.2615 49.2015 60.0801C49.0676 61.0238 48.6868 61.9188 48.6382 62.8764C47.9584 65.8327 47.3203 68.7994 46.724 71.7748C47.555 72.0616 48.4382 71.959 49.3005 71.9782C49.6639 71.9973 50.1785 71.8947 50.215 71.4516C50.4167 70.2889 50.5558 69.1105 50.9383 67.9878C52.3239 68.0104 53.713 67.9635 55.0987 68.0087C55.5194 68.3371 55.5437 68.928 55.6133 69.4164C55.6168 70.2367 55.7976 71.064 56.1853 71.7905C56.4182 72.0581 56.7886 71.9608 57.0998 71.9834C57.8369 71.9573 58.5845 72.0494 59.3095 71.8826C59.3547 71.0727 59.2591 70.268 58.9635 69.512C58.588 67.6611 58.2629 65.7962 57.7691 63.9696C57.6057 63.0155 57.2528 62.0978 57.1902 61.1263C57.1154 60.346 56.7573 59.6212 56.6825 58.8392C56.6025 58.0136 56.2618 57.2437 56.1575 56.4234C56.041 55.4918 55.6672 54.6124 55.5872 53.6757C55.4568 53.0309 55.3855 52.2418 54.7666 51.8647C53.7565 51.823 52.7447 51.8543 51.7328 51.8473C51.2912 51.8404 50.7627 52.1393 50.787 52.6381ZM90.5881 51.8769C90.1951 52.035 90.1517 52.44 90.3412 52.7823C91.6434 55.9507 92.9543 59.1155 94.2443 62.2908C94.4233 62.7791 94.771 63.2292 94.7571 63.7715C94.7658 66.2533 94.7554 68.7386 94.7589 71.2204C94.6685 71.7366 95.2596 72.0129 95.6942 71.9782C96.5374 71.9643 97.4085 72.079 98.2186 71.7766C98.2551 69.2669 98.2291 66.7573 98.2325 64.2477C98.2152 63.5212 98.5594 62.8573 98.8236 62.2021C100.107 59.1155 101.358 56.015 102.647 52.9318C102.768 52.6537 102.749 52.3444 102.781 52.0507C101.958 51.7448 101.072 51.8525 100.216 51.856C99.7451 51.8699 99.3261 52.1567 99.1818 52.6103C98.3142 54.7897 97.5284 57.0021 96.5774 59.1485C96.3114 58.721 96.0541 58.2847 95.8716 57.8138C95.2439 56.1349 94.5659 54.4734 93.9348 52.7963C93.7314 52.3791 93.4654 51.7778 92.9073 51.8508C92.1336 51.856 91.3582 51.8074 90.5881 51.8769ZM24.1243 52.4886C23.0795 53.1265 22.8291 54.4317 22.7874 55.5614C22.7857 59.7377 22.7926 63.914 22.7857 68.0886C22.7752 68.6795 22.9039 69.26 22.9995 69.8405C23.2672 70.6052 23.8288 71.2743 24.5868 71.5871C25.6282 72.152 26.8348 71.9278 27.9648 71.9886C28.283 72.6977 28.5994 73.4085 28.9802 74.088C30.0511 74.0828 31.1221 74.1072 32.1913 74.0689C32.2365 73.1617 31.4107 72.4978 31.4455 71.6097C31.7288 71.0727 32.313 70.7164 32.5164 70.1185C32.7059 69.5189 32.8624 68.8968 32.8537 68.2641C32.8467 64.0305 32.8485 59.795 32.852 55.5614C32.8693 54.8922 32.6868 54.2353 32.4747 53.6044C32.0435 52.6433 31.0108 52.0159 29.9694 51.9846C28.8828 51.7726 27.7736 51.8525 26.6748 51.8578C25.8177 52.0333 24.8493 51.9029 24.1243 52.4886ZM41.7273 52.0541C41.6926 57.2298 41.7308 62.4089 41.7082 67.5863C41.6769 68.1355 41.2006 68.7716 40.5955 68.6847C39.8671 68.6465 38.9178 68.9072 38.4571 68.1616C38.3789 67.6176 38.4241 67.0649 38.4154 66.5192C38.4154 61.8789 38.4189 57.2385 38.4136 52.5981C38.478 52.3079 38.2676 52.0211 37.9703 52.0142C37.1636 51.9603 36.3552 51.9881 35.5485 51.9933C35.3051 51.9812 35.133 52.1845 34.9295 52.2853C34.9626 57.7182 34.9348 63.1545 34.9435 68.5891C34.9435 69.187 35.1521 69.7657 35.3816 70.3115C35.9883 71.5836 37.5357 72.0685 38.8552 71.9799C40.4252 71.9191 42.1307 72.2249 43.5581 71.3959C44.6273 70.8467 44.9906 69.5554 45.0115 68.4362C45.0098 63.2744 45.008 58.1109 45.0132 52.9475C45.0254 52.6311 44.9228 52.3322 44.8411 52.0333C43.8293 51.7152 42.7444 51.8091 41.7273 52.0541ZM78.6128 52.287C78.5659 53.0361 78.5902 53.7869 78.5954 54.5377C78.5902 54.8783 78.8127 55.285 79.1952 55.2833C80.0906 55.3146 80.9859 55.2763 81.883 55.3059C81.9004 60.7318 81.8726 66.1577 81.8952 71.5836C81.9474 71.6445 82.0499 71.7696 82.1021 71.8322C83.1279 71.8791 84.1554 71.8339 85.1811 71.8513C85.4558 71.2673 85.3358 70.6156 85.355 69.9951C85.3584 65.101 85.3445 60.2069 85.3619 55.3128C86.2503 55.2746 87.1422 55.3198 88.0324 55.2798C88.2636 55.1894 88.4687 55.04 88.6322 54.8505C88.7261 53.9798 88.6304 53.0987 88.6809 52.2262C88.3279 52.0402 87.9698 51.7952 87.5508 51.8438C84.9325 51.8508 82.3142 51.8491 79.6959 51.8438C79.2978 51.8282 78.8423 51.9342 78.6128 52.287ZM73.3449 52.1741C73.378 58.7244 73.338 65.2766 73.3623 71.8287C74.4663 71.86 75.5703 71.8634 76.6743 71.8287C76.6899 65.2974 76.6899 58.7662 76.6743 52.2366C76.6152 52.1775 76.497 52.0576 76.4379 51.9985C75.4121 52.0385 74.3307 51.8282 73.3449 52.1741ZM61.5175 52.1428C61.5383 58.7088 61.5036 65.2731 61.5279 71.8391C64.7251 71.8565 67.9223 71.8565 71.1196 71.8391C71.1248 70.7894 71.1422 69.7379 71.1057 68.6899C69.2767 68.6743 67.446 68.683 65.617 68.6865C65.3823 68.6726 65.1372 68.7004 64.9164 68.6135C64.6121 68.0156 64.7147 67.3361 64.7043 66.6913C64.699 61.8406 64.699 56.9882 64.7077 52.1358C63.6437 52.1254 62.5797 52.1184 61.5175 52.1428ZM114.081 53.1456C114.029 53.8373 114.048 54.5325 114.059 55.2259C114.026 55.5544 114.163 55.8551 114.356 56.1175C114.412 55.2485 114.464 54.3639 114.344 53.5001C114.278 53.4115 114.147 53.2342 114.081 53.1456ZM114.606 56.95C114.525 58.4568 114.599 59.9688 114.584 61.4791C114.612 63.6776 114.526 65.8762 114.603 68.073C115.126 67.5811 114.855 66.806 114.926 66.1734C114.928 63.3839 114.935 60.5945 114.921 57.8051C114.947 57.4783 114.841 57.1777 114.606 56.95ZM10.3079 69.9413C10.6244 70.8433 10.7096 71.7991 10.8069 72.7463C11.0364 73.485 11.2902 74.2253 11.3198 75.0074C11.6501 76.1719 11.9683 77.345 12.3264 78.506C14.2302 84.5767 17.297 90.2685 21.2453 95.2547C23.0238 97.6722 25.2822 99.6657 27.3807 101.793C29.4635 103.618 31.6645 105.314 34.0046 106.8C38.8205 109.954 44.1979 112.2 49.7647 113.622C50.7575 113.684 51.6476 114.249 52.6525 114.216C53.5739 114.16 54.3737 114.789 55.2986 114.737C56.2496 114.795 57.2475 114.584 58.1516 114.97C58.7079 115.184 59.3147 115.066 59.8954 115.12C61.3297 115.344 62.7936 115.248 64.2401 115.233C65.1389 114.989 66.1021 115.26 66.9766 114.916C68.1066 114.506 69.348 114.941 70.4989 114.616C71.0674 114.492 71.5994 114.188 72.1957 114.219C73.1937 114.285 74.0873 113.754 75.0592 113.63C83.0218 111.68 90.529 107.836 96.7217 102.455C98.1839 101.325 99.4391 99.9663 100.748 98.6698C103.85 95.3277 106.55 91.6171 108.749 87.6216C110.677 83.944 112.254 80.0736 113.33 76.0658C113.33 75.216 113.916 74.4982 113.878 73.6483C113.819 72.7915 114.403 72.0564 114.399 71.21C114.417 70.4887 114.391 69.7675 114.417 69.0462C114.33 69.0288 114.154 68.9941 114.066 68.9767C114.015 70.0247 114.222 71.1335 113.737 72.1102C113.388 72.8072 113.678 73.624 113.325 74.3192C113.092 74.811 112.991 75.3411 112.969 75.8816C112.181 78.4851 111.371 81.0955 110.227 83.5704C108.949 86.5197 107.344 89.3178 105.55 91.9804C102.895 95.8578 99.6738 99.3233 96.1376 102.41C91.0557 106.701 85.1533 110.034 78.8319 112.118C77.0272 112.713 75.1757 113.149 73.3588 113.693C72.4461 113.665 71.5646 113.9 70.7075 114.195C69.7704 114.223 68.8473 114.419 67.9067 114.398C67.2478 114.36 66.6706 114.789 66.0134 114.755C63.6124 114.763 61.2115 114.763 58.8123 114.755C58.162 114.758 57.5918 114.331 56.9346 114.393C55.9888 114.433 55.0587 114.242 54.1199 114.188C53.4018 113.952 52.6768 113.67 51.9084 113.715C51.1938 113.794 50.634 113.213 49.9316 113.204C49.198 113.241 48.5982 112.737 47.8836 112.673C39.2447 110.194 31.3151 105.349 25.0336 98.9305C21.3705 95.0966 18.2219 90.7551 15.8331 86.0174C14.3049 83.0681 13.154 79.9363 12.1926 76.7663C12.1717 75.9233 11.5458 75.2264 11.6345 74.3713C11.6832 73.6223 11.0712 73.0227 11.1181 72.2771C11.1459 71.5541 10.9895 70.8433 10.7652 70.1603C10.4575 69.3869 10.68 68.5422 10.5427 67.741C10.3288 66.6687 10.5201 65.5668 10.3584 64.4893C9.82463 66.2707 10.1967 68.132 10.3079 69.9413ZM22.7039 78.6154C22.8048 78.8431 22.9039 79.0725 23.0012 79.3019C40.1661 79.295 57.331 79.3019 74.4959 79.3002C83.7329 79.2828 92.9716 79.335 102.209 79.2741C102.202 78.9474 102.198 78.6207 102.195 78.2939C94.7589 78.2505 87.3213 78.287 79.8854 78.2748C61.1159 78.2748 42.3445 78.2748 23.575 78.2731C23.2394 78.2296 22.9682 78.4451 22.7039 78.6154ZM69.2332 84.8791C69.1637 86.4241 69.2315 87.9779 69.1985 89.5264C68.9099 89.5351 68.623 89.5455 68.3361 89.5559C68.2961 88.1325 68.3274 86.7074 68.317 85.284C68.3726 84.853 67.9849 84.5732 67.7554 84.2638C67.6407 84.3386 67.4095 84.4898 67.2947 84.5645C67.2704 86.3894 67.2374 88.2177 67.3052 90.0408C67.7659 90.8837 68.8438 90.557 69.6244 90.5639C69.9374 90.3502 70.2694 90.0304 70.2364 89.6168C70.252 88.2872 70.2277 86.9577 70.2433 85.6264C70.226 85.178 70.3511 84.6218 69.9113 84.3299C69.5688 84.2586 69.4088 84.6583 69.2332 84.8791ZM79.2769 85.2927C79.6368 85.3466 79.9915 85.43 80.3375 85.5534C80.334 87.2253 80.3288 88.8972 80.3444 90.5692C80.68 90.5744 81.0138 90.5865 81.3493 90.597C81.4362 90.2268 81.5353 89.8549 81.518 89.4725C81.5023 88.2351 81.5232 86.9994 81.504 85.7619C81.8483 85.5308 82.2047 85.317 82.5576 85.098C82.462 84.8582 82.389 84.6097 82.3281 84.3594C81.4762 84.3542 80.6208 84.3108 79.7689 84.3664C79.3517 84.4515 79.2596 84.926 79.2769 85.2927ZM42.6105 84.5454C42.5862 86.5631 42.5862 88.5809 42.6158 90.5987C42.9635 90.5952 43.3147 90.5883 43.6502 90.484C43.6467 89.9643 43.6189 89.4447 43.6572 88.9285C43.8223 88.2629 44.6325 88.567 45.1193 88.5062C45.4375 88.0752 45.8008 87.6094 45.7087 87.0376C45.6148 86.2694 45.9694 85.3205 45.3505 84.7105C44.5682 84.1283 43.4868 84.2986 42.6105 84.5454ZM49.1441 84.3803C48.8781 84.528 48.6156 84.7678 48.6834 85.105C48.6973 86.8482 48.6521 88.5948 48.7042 90.338C48.9007 90.7099 49.351 90.557 49.69 90.6143C49.7282 89.9765 49.7404 89.3387 49.7143 88.7008C49.8326 88.68 50.0725 88.6348 50.1924 88.6139C50.481 89.2587 50.7123 89.9278 50.9331 90.5987C51.2304 90.59 51.5294 90.5813 51.8302 90.5761C51.825 90.053 51.6372 89.5681 51.479 89.0797C51.2964 88.5253 51.8336 88.0769 51.8197 87.5329C51.8458 86.65 51.8197 85.7654 51.8093 84.8825C51.4477 84.6861 51.126 84.3386 50.6897 84.3472C50.175 84.3403 49.6552 84.3073 49.1441 84.3803ZM54.977 85.1172C54.9022 86.5684 54.9648 88.0265 54.9457 89.4812C54.8953 89.9139 55.2273 90.2372 55.429 90.5848C56.1314 90.5952 56.8338 90.597 57.5361 90.5778C57.7569 90.1729 58.1133 89.7923 58.0577 89.297C58.0403 87.9831 58.0838 86.6657 58.0403 85.3518C57.67 84.064 55.5524 83.9493 54.977 85.1172ZM61.0168 84.7261C61.062 86.591 60.9802 88.4593 61.0533 90.3206C61.4618 90.849 62.2772 90.4944 62.8649 90.6004C63.4264 90.7169 63.9045 90.2894 64.1375 89.8236C64.1844 88.2368 64.1253 86.6483 64.1618 85.0598C63.8541 84.8043 63.5499 84.535 63.1847 84.3664C62.4459 84.3281 61.6253 84.203 61.0168 84.7261ZM73.3693 84.9312C73.3449 86.6188 73.3571 88.3063 73.3606 89.9939C73.5918 90.1851 73.8126 90.3919 74.0612 90.5657C74.635 90.6213 75.2209 90.6196 75.7963 90.5605C76.0519 90.3658 76.2779 90.1312 76.4552 89.8635C76.5039 89.4881 76.5091 89.1023 76.4465 88.7304C76.2431 88.4141 75.8328 88.5409 75.5199 88.4992C75.4382 88.859 75.3443 89.2153 75.2417 89.5716C74.9618 89.5229 74.5637 89.6446 74.4124 89.3213C74.3811 88.0613 74.4037 86.8013 74.4107 85.5412C74.6889 85.5325 74.967 85.5256 75.2469 85.5169C75.3339 85.8193 75.426 86.12 75.5112 86.4258C75.8328 86.4189 76.1562 86.4137 76.4796 86.4119C76.4778 85.9496 76.4744 85.4891 76.4848 85.0268C76.0067 84.6566 75.4956 84.2204 74.8436 84.3351C74.2646 84.236 73.8196 84.6444 73.3693 84.9312ZM26.5862 88.4367C26.6296 88.8468 26.7252 89.2466 26.8035 89.6532C26.5218 89.9591 26.2228 90.2511 25.9724 90.5848C26.3254 90.703 26.694 90.7673 27.066 90.7812C27.2051 91.0697 27.339 91.3651 27.4833 91.6536C27.6901 91.6432 27.897 91.638 28.1057 91.6363C28.1978 91.353 28.2986 91.0749 28.396 90.7951C28.8272 90.7638 29.2462 90.6508 29.6582 90.5222C29.3992 90.2737 29.1227 90.0478 28.8428 89.827C28.8498 89.3595 28.8602 88.8938 28.8515 88.4297C28.4569 88.5792 28.1005 88.9424 27.6536 88.866C27.2885 88.746 26.953 88.5514 26.5862 88.4367ZM95.9098 88.6053C96.0228 88.9946 96.2436 89.396 96.1097 89.8114C95.7759 90.0773 95.3048 90.2476 95.2196 90.7186C95.6282 90.7447 96.0367 90.7499 96.447 90.7551C96.6922 91.1618 96.9164 91.5841 97.0973 92.0256C97.3476 91.5876 97.6275 91.167 97.9178 90.7534C98.2795 90.7482 98.6428 90.743 99.0062 90.7256C98.8376 90.3189 98.5229 90.0078 98.2047 89.7176C98.2238 89.29 98.2499 88.8642 98.2499 88.4367C97.9109 88.5844 97.5927 88.786 97.2363 88.8868C96.7843 88.8486 96.3653 88.6365 95.9098 88.6053ZM39.5993 97.6427C39.4968 98.3518 40.0114 98.9479 39.9853 99.6361C39.5159 100.178 38.7735 100.451 38.4814 101.153C39.1299 101.437 39.834 101.308 40.5156 101.365C40.8928 101.915 41.0389 102.592 41.2962 103.204C41.8612 102.742 42.0316 102.005 42.2854 101.357C42.9217 101.348 43.5563 101.343 44.1944 101.339C44.1822 101.11 44.1718 100.884 44.1631 100.658C43.7354 100.335 43.2295 100.071 42.9235 99.6205C42.8487 98.9375 43.346 98.35 43.3286 97.6653C42.5636 97.6479 42.0333 98.2718 41.4353 98.6524C40.832 98.2996 40.3365 97.6931 39.5993 97.6427ZM81.4849 97.7139C81.7996 98.3657 81.9613 99.0748 81.9143 99.8012C81.3876 100.164 80.8347 100.533 80.5687 101.145C81.212 101.628 82.0187 100.894 82.6428 101.461C83.0844 101.967 82.8445 102.996 83.6842 103.168C83.9085 102.655 84.0736 102.118 84.1693 101.567C84.4179 101.442 84.663 101.31 84.9255 101.214C85.3776 101.268 85.8313 101.421 86.2851 101.273C86.2434 101.046 86.2399 100.809 86.153 100.595C85.7861 100.265 85.2646 100.071 85.0177 99.6361C84.9186 98.9566 85.2906 98.3361 85.4367 97.6931C84.6369 97.554 84.1467 98.277 83.5382 98.6472C82.8462 98.3274 82.3316 97.5228 81.4849 97.7139ZM58.8974 102.026C58.9322 102.957 59.4294 103.783 59.6259 104.683C59.6398 104.873 59.7094 105.119 59.5564 105.274C58.8766 106.021 57.8786 106.393 57.2458 107.195C58.0994 107.963 59.3025 107.467 60.3265 107.638C60.669 107.834 60.8429 108.215 60.9246 108.587C61.0759 109.23 61.321 109.847 61.5818 110.453C61.707 110.446 61.9591 110.432 62.0842 110.427C62.5849 109.532 62.6545 108.458 63.2647 107.615C64.2592 107.575 65.278 107.735 66.2533 107.504C66.2516 107.299 66.2516 107.095 66.2533 106.894C65.544 106.385 64.8346 105.879 64.1271 105.37C64.1288 104.794 64.0923 104.193 64.3583 103.663C64.6156 103.142 64.7303 102.573 64.6956 101.995C63.8002 101.998 63.2091 102.761 62.5189 103.22C62.265 103.477 61.8913 103.531 61.5488 103.454C60.8533 103.076 60.2935 102.495 59.6207 102.081C59.3808 102.04 59.1374 102.038 58.8974 102.026Z" fill="black"/>
<path id="Vector_3" d="M65.966 38.8702C66.2841 38.4566 66.8457 38.6582 67.289 38.6252C67.2925 39.0492 67.3064 39.4837 67.1656 39.8922C66.7883 41.0774 66.8161 42.374 66.2511 43.5019C66.0373 43.9816 65.5192 44.1849 65.0915 44.43C64.8933 44.2319 64.6777 44.0476 64.516 43.8182C64.3526 42.0785 64.7386 40.1754 65.966 38.8702Z" fill="black"/>
<path id="Vector_4" d="M64.3553 47.7043C64.6474 47.2785 65.122 47.0508 65.5827 46.8527C65.6175 47.447 65.3811 47.9876 65.1377 48.5142C64.8543 48.5263 64.5726 48.5385 64.291 48.5541C64.3049 48.2691 64.2945 47.9823 64.3553 47.7043Z" fill="black"/>
<path id="Vector_5" d="M26.644 55.3478C27.4872 55.2244 28.3443 55.3183 29.1945 55.3113C29.3405 55.7285 29.5492 56.1438 29.5387 56.5992C29.5387 60.1429 29.5353 63.6866 29.5405 67.2303C29.5544 67.7986 29.3388 68.4921 28.7216 68.6537C28.1566 68.7128 27.5863 68.6954 27.0196 68.6711C26.6788 68.4625 26.2076 68.181 26.2407 67.7256C26.2355 63.8517 26.2285 59.9778 26.2424 56.1056C26.2024 55.7823 26.4006 55.5321 26.644 55.3478Z" fill="black"/>
<path id="Vector_6" d="M53.1326 57.0337C53.4421 57.7723 53.5238 58.5718 53.5933 59.3626C53.8315 60.2785 54.0071 61.21 54.0958 62.1537C54.2766 63.0627 54.6504 63.9404 54.6174 64.8858C53.6055 64.9206 52.5919 64.924 51.5801 64.8806C51.6861 63.5371 51.9608 62.2163 52.2929 60.9146C52.3972 59.5885 52.6754 58.2815 53.1326 57.0337Z" fill="black"/>
<path id="Vector_7" d="M55.8016 85.5015C56.231 85.3503 56.8795 85.2321 57.135 85.7257C57.2063 86.8415 57.1594 87.9642 57.1559 89.0817C57.1507 89.6048 56.4848 89.5562 56.1162 89.5857C55.8485 88.3031 56.0397 86.9701 56.0189 85.6683C55.9754 85.6822 55.8902 85.7083 55.8468 85.7222C55.7581 86.9718 55.885 88.2283 55.805 89.4779C55.7755 88.1536 55.7494 86.8258 55.8016 85.5015Z" fill="black"/>
<path id="Vector_8" d="M49.7474 85.3938C50.0725 85.3938 50.3976 85.3938 50.7245 85.3921C50.8149 85.9899 51.0635 86.6452 50.8271 87.2274C50.608 87.648 50.1038 87.4724 49.7387 87.4325C49.7266 86.7529 49.7266 86.0734 49.7474 85.3938Z" fill="black"/>
<path id="Vector_9" d="M62.0925 85.3938C62.4228 85.3956 62.7549 85.3938 63.0852 85.3921C63.1339 86.7755 63.1217 88.1624 63.0974 89.5458C62.7584 89.5423 62.4193 89.5406 62.082 89.5406C62.0699 88.1589 62.0594 86.7755 62.0925 85.3938Z" fill="black"/>
<path id="Vector_10" d="M43.674 87.1992C43.6184 86.5492 43.5419 85.8158 44.0252 85.2979C44.1452 85.3691 44.3851 85.5116 44.505 85.5829C44.505 86.1651 44.5572 86.7491 44.4911 87.3295C44.3155 87.5937 43.7905 87.5085 43.674 87.1992Z" fill="black"/>
</g>
</g>
<defs>
<clipPath id="clip0_328_339">
<rect width="125" height="125" fill="white"/>
</clipPath>
</defs>
</svg>
