<svg width="105" height="70" viewBox="0 0 105 70" fill="none" xmlns="http://www.w3.org/2000/svg">
<g id="logo 1">
<g id="#092445ff" filter="url(#filter0_d_328_296)">
<path id="Vector" d="M46.1285 4.93064C47.3609 4.79952 48.5966 4.66536 49.8195 4.45801C49.6978 5.00077 49.6306 5.55878 49.7266 6.11375C50.0756 8.62632 50.4245 11.1358 50.7606 13.6484C50.9367 13.7308 51.292 13.8924 51.4713 13.9747C50.1044 14.1516 48.7342 14.3315 47.3577 14.429C47.5274 14.3254 47.8699 14.118 48.0396 14.0143C47.8859 12.8404 47.7323 11.6664 47.5658 10.4925C46.0228 10.7029 44.4734 10.8828 42.9304 11.0871C43.0777 12.2458 43.2474 13.4014 43.3978 14.5632C43.5739 14.6455 43.9292 14.8102 44.1085 14.8925C42.7384 15.0541 41.3714 15.2432 39.9949 15.3469C40.1678 15.2401 40.5071 15.0328 40.6768 14.9291C40.3022 12.014 39.8765 9.1081 39.5051 6.19608C39.3195 6.1107 38.9449 5.93994 38.756 5.85456C40.0013 5.70515 41.2466 5.57403 42.4823 5.36668C42.1045 6.54369 42.4983 7.76034 42.6391 8.94039C44.1885 8.75744 45.7379 8.55924 47.2873 8.37628C47.1464 7.36089 46.996 6.34854 46.8711 5.33009C46.6855 5.22947 46.3141 5.03127 46.1285 4.93064Z" fill="white"/>
<path id="Vector_2" d="M54.6059 4.65625C56.7635 4.86055 58.9179 5.09534 61.0755 5.33013C62.1992 5.46125 63.4669 5.63201 64.2512 6.50409C65.0451 7.4524 64.949 8.83676 64.4752 9.89485C64.0015 10.8371 62.9098 11.203 61.9559 11.5445C62.6377 12.8191 63.2716 14.1241 64.1135 15.3134C62.9162 15.1609 61.719 15.0359 60.5153 14.9505C60.637 14.6334 60.8803 14.298 60.621 13.9717C60.176 12.9959 59.5806 12.0873 59.062 11.145C58.4858 11.081 57.9063 11.0139 57.3269 10.9499C57.1893 12.0019 57.0676 13.0539 56.9428 14.1089C57.1124 14.237 57.4518 14.4931 57.6182 14.6212C56.2769 14.4596 54.9324 14.3223 53.5879 14.1699C53.7512 14.0723 54.0745 13.8772 54.2345 13.7765C54.5867 10.895 54.9004 8.00432 55.2717 5.12278C55.1053 5.00691 54.7723 4.77212 54.6059 4.65625ZM57.7911 7.0682C57.7079 7.72379 57.6246 8.37937 57.5414 9.03496C58.8155 9.14473 60.0896 9.44661 61.3733 9.32769C62.2184 9.18742 62.3432 7.88845 61.5493 7.58352C60.3393 7.21761 59.0428 7.22066 57.7911 7.0682Z" fill="white"/>
<path id="Vector_3" d="M31.0049 8.22677C32.2534 7.92794 33.5915 7.97673 34.7759 7.43701C34.6959 8.303 34.6543 9.17203 34.6447 10.038C33.1145 9.41597 31.4179 9.98313 29.9741 10.5686C29.3243 10.8705 28.3607 11.4437 28.8025 12.2518C31.1682 12.392 33.3546 10.6692 35.7491 11.337C37.7243 11.956 38.1308 14.7186 36.6391 16.0023C34.6575 17.8105 31.8212 18.521 29.1418 18.6399C29.0234 18.7528 28.7929 18.9753 28.6776 19.0882C28.668 17.8227 28.5912 16.5603 28.5336 15.298C28.6712 15.5084 28.9465 15.9261 29.0842 16.1365C30.9633 16.3926 33.0025 16.0145 34.5134 14.8802C34.9808 14.4991 35.4002 13.5599 34.5647 13.3312C32.3302 13.5172 30.211 14.8802 27.9285 14.3405C26.408 13.9532 26.043 12.0261 26.7345 10.843C27.5924 9.35803 29.3531 8.62012 31.0049 8.22677Z" fill="white"/>
<path id="Vector_4" d="M70.2354 8.14448C72.9309 7.53768 76.052 8.70554 77.435 11.023C78.9876 13.6667 77.1437 17.5026 73.9745 17.9996C71.5959 18.3289 69.0126 17.3776 67.508 15.5907C65.4592 13.0964 67.0246 8.90679 70.2354 8.14448ZM71.1542 10.4284C69.6432 10.9467 68.8301 12.8281 69.576 14.1972C70.261 15.5724 72.185 16.164 73.6255 15.5633C75.0245 14.9412 75.6551 13.1666 74.9764 11.8554C74.2882 10.5869 72.5595 9.95573 71.1542 10.4284Z" fill="white"/>
<path id="Vector_5" d="M18.0913 15.3285C18.9972 14.6821 19.8359 13.9594 20.5914 13.1575C21.5902 15.5054 24.2632 16.7739 25.3484 19.0913C25.7998 20.1189 25.6718 21.3447 25.0251 22.2717C24.148 23.5584 22.8899 24.6318 21.4173 25.263C20.0824 25.8271 18.4946 25.4612 17.4478 24.5342C16.1225 23.3633 15.0213 21.985 13.7696 20.744C13.4687 20.3537 12.9725 20.2561 12.502 20.1829C13.4495 19.4755 14.3459 18.704 15.1718 17.8685C15.6584 19.2895 16.9965 20.186 17.944 21.3172C18.6899 22.0064 19.343 23.1468 20.5402 23.0401C21.6254 22.8297 22.621 22.0094 22.9443 20.9879C23.1652 19.8567 22.0608 19.0974 21.3981 18.3229C20.3129 17.3105 19.487 15.9933 18.0913 15.3285Z" fill="white"/>
<path id="Vector_6" d="M82.7134 14.4992C85.841 13.7887 89.0902 16.097 89.9097 18.9328C90.8092 22.0491 87.592 25.4765 84.2275 24.8666C81.9579 24.4214 79.9507 22.7992 79.0864 20.7532C78.0748 18.1735 79.9955 15.1609 82.7134 14.4992ZM83.3888 16.9843C81.2536 17.6612 80.7446 20.6769 82.6653 21.8692C84.2179 23.1712 86.8237 22.2687 87.3039 20.4025C87.9666 18.3199 85.5016 16.2129 83.3888 16.9843Z" fill="white"/>
<path id="Vector_7" d="M95.2872 24.5678C95.3544 24.3848 95.4888 24.0158 95.5561 23.8298C96.0715 25.1745 96.6125 26.5071 97.2015 27.8243C95.6585 28.5074 94.6565 29.8673 93.4401 30.9437C94.9222 30.9864 96.414 31.27 97.8898 31.1114C97.9986 30.9773 98.2195 30.7089 98.3283 30.5748C98.8725 32.0231 99.4488 33.4593 100.121 34.8589C99.4936 34.8132 98.8629 34.862 98.2899 35.1212C96.0715 35.975 93.8274 36.7708 91.6058 37.6216C91.1448 37.7466 90.8855 38.1369 90.6166 38.4814C90.2036 37.3166 89.7138 36.1793 89.2497 35.0328C89.4065 35.1608 89.717 35.417 89.8739 35.545C92.1308 34.7004 94.3844 33.8527 96.6477 33.0294C93.9298 32.8708 91.2056 32.7641 88.4814 32.694C90.4309 30.84 92.3805 28.9892 94.3204 27.1291C92.3324 27.8579 90.3477 28.5928 88.3629 29.3276C87.8699 29.4709 87.5178 29.8338 87.2201 30.2119C86.8808 29.2361 86.4838 28.2817 86.0645 27.3365C86.2341 27.4401 86.5734 27.6475 86.7399 27.7512C89.5858 26.6809 92.4381 25.6228 95.2872 24.5678Z" fill="white"/>
<path id="Vector_8" d="M8.80226 25.2051C8.86308 25.385 8.98473 25.7509 9.04555 25.9338C11.9395 26.8639 14.8238 27.8091 17.7113 28.7544C17.8713 28.6355 18.1946 28.3976 18.3547 28.2757C17.9289 29.4954 17.4904 30.709 17.0454 31.9195C16.9782 31.7274 16.8469 31.3432 16.7829 31.1511C14.5196 30.4498 12.2756 29.6997 10.0187 28.977C12.0323 30.6785 14.0042 32.4257 16.0146 34.1333C13.3064 34.3467 10.5981 34.5388 7.88991 34.7309C10.1724 35.5146 12.4805 36.2311 14.7725 36.9874C14.9358 36.8684 15.2559 36.6245 15.4192 36.5056C15.035 37.5332 14.6317 38.5577 14.3628 39.6219C14.0331 38.7651 13.0503 38.6492 12.2692 38.3778C9.9515 37.6399 7.64342 36.8715 5.32573 36.1336C5.17528 36.2708 4.87116 36.5483 4.7207 36.6885C5.25531 35.1456 5.79311 33.6057 6.37893 32.0811C6.44616 32.258 6.58701 32.6117 6.65744 32.7885C8.16201 32.6849 9.66339 32.5812 11.168 32.4653C10.2364 31.6939 9.39768 30.8279 8.48214 30.0381C8.16201 29.6692 7.66903 29.6417 7.20485 29.6417C7.77787 28.175 8.30607 26.6931 8.80226 25.2051Z" fill="white"/>
<path id="Vector_9" d="M79.6997 52.9899C80.2631 53.0112 80.8169 52.8953 81.3323 52.6758C81.3099 53.4991 81.3099 54.3224 81.3291 55.1457C79.7253 54.6395 78.0031 54.9749 76.348 54.8895C76.348 55.2737 76.348 55.6549 76.348 56.0391C77.4204 56.0421 78.496 56.033 79.5652 55.9141C79.5556 56.6215 79.5556 57.3259 79.5684 58.0333C78.5216 57.7497 77.43 57.7619 76.3512 57.768C76.348 58.2285 76.348 58.6889 76.348 59.1524C77.7726 59.128 79.2003 59.2256 80.6217 59.1158C80.8041 59.0091 81.1659 58.7956 81.3483 58.6919C81.3099 59.5366 81.3067 60.3843 81.3131 61.232C78.8258 60.8782 76.2904 61.1252 73.7838 61.0795C74.312 59.7805 74.0591 58.3718 74.1072 57.0149C74.0463 55.664 74.3441 54.2431 73.7518 52.9624C75.7334 52.9899 77.7181 52.9807 79.6997 52.9899Z" fill="white"/>
<path id="Vector_10" d="M24.1777 52.9958C26.1465 52.9745 28.1152 52.9745 30.0872 52.9775C31.1308 53.0141 32.3504 53.0385 33.1091 53.8344C33.7526 54.5906 33.839 55.7066 33.4805 56.597C33.1347 57.4172 32.2064 57.7587 31.4637 58.1734C32.216 59.1522 32.9395 60.1493 33.7846 61.058C32.7026 61.058 31.6206 61.0611 30.5386 61.0702C30.4905 59.8505 29.4085 59.0333 28.7459 58.0819C28.2593 58.085 27.7695 58.088 27.2829 58.0911C27.3085 59.0943 27.1229 60.1585 27.6318 61.0855C26.5562 61.0519 25.4838 61.055 24.4082 61.0855C24.6387 60.561 24.866 60.0243 24.8148 59.445C24.8212 57.4751 24.7924 55.5023 24.818 53.5325C24.6579 53.3983 24.3378 53.13 24.1777 52.9958ZM27.2893 54.8132C27.2893 55.3468 27.2893 55.8834 27.2893 56.4171C28.4802 56.4201 29.671 56.411 30.8587 56.3134C30.9227 55.8347 31.1884 55.2675 30.721 54.8924C29.5846 54.7339 28.4322 54.8254 27.2893 54.8132Z" fill="white"/>
<path id="Vector_11" d="M37.3184 52.9926C38.4868 52.9804 39.6585 52.9865 40.8301 52.9561C40.5708 53.3494 40.2667 53.755 40.3339 54.2489C40.3275 56.0876 40.3211 57.9294 40.3339 59.7681C40.3019 60.2437 40.526 60.6737 40.7373 61.0914C39.6873 61.0518 38.6373 61.0548 37.5873 61.0792C38.1411 58.6063 37.7185 56.048 37.8626 53.5385C37.7249 53.4012 37.4528 53.1299 37.3184 52.9926Z" fill="white"/>
<path id="Vector_12" d="M64.2751 54.2032C64.8417 53.3647 65.9013 52.9927 66.9065 52.9134C68.5583 52.7579 70.1269 53.4318 71.7659 53.4684C71.4234 54.1422 71.1033 54.8253 70.7896 55.5114C69.7364 54.621 68.2638 54.3862 66.9033 54.5417C66.3079 54.5325 66.119 55.1119 65.8373 55.4961C67.4475 55.9108 69.2082 55.7431 70.7319 56.4444C72.4158 57.3378 72.1565 59.9663 70.4182 60.6585C68.203 61.6464 65.7508 60.9207 63.4844 60.5243C63.8877 59.6034 64.2463 58.6643 64.6208 57.7312C64.704 57.9538 64.8737 58.3959 64.9601 58.6185C66.5095 59.3382 68.7632 59.884 70.0181 58.399C68.395 57.411 66.2694 57.9965 64.6624 56.9933C63.6668 56.4139 63.6604 55.0418 64.2751 54.2032Z" fill="white"/>
</g>
<g id="#ec9020ff" filter="url(#filter1_d_328_296)">
<path id="Vector_13" d="M38.4023 21.2076C42.343 19.2622 46.6679 17.9418 51.1176 17.7192C51.3513 25.8668 51.745 34.0113 51.9467 42.1559C51.2232 42.1559 50.503 42.1559 49.7795 42.1498C45.986 35.1701 42.183 28.1934 38.4023 21.2076Z" fill="#EC9020"/>
<path id="Vector_14" d="M53.9423 17.707C58.2703 17.8961 62.5439 18.9267 66.4654 20.6831C62.5535 27.8336 58.6801 35.0023 54.7778 42.1559C54.1023 42.1559 53.4301 42.1559 52.7578 42.1559C53.1612 34.0083 53.5389 25.8577 53.9423 17.707Z" fill="#EC9020"/>
<path id="Vector_15" d="M68.9715 21.9119C72.7522 23.9671 76.1519 26.6351 79.0298 29.7454C73.2196 33.2916 67.4062 36.8349 61.5927 40.375C60.6004 40.9391 59.688 41.6405 58.6348 42.107C57.668 42.2168 56.6917 42.1436 55.7185 42.1466C60.117 35.3895 64.5443 28.6507 68.9715 21.9119Z" fill="#EC9020"/>
<path id="Vector_16" d="M36.0036 22.5217C40.2836 29.0654 44.5828 35.5999 48.8565 42.1528C47.6368 42.043 46.2283 42.4882 45.1719 41.7289C38.9135 37.8899 32.6327 34.0875 26.3711 30.2516C29.1978 27.2785 32.4182 24.6349 36.0036 22.5217Z" fill="#EC9020"/>
<path id="Vector_17" d="M60.5391 42.1375C67.2904 38.6888 74.0642 35.2706 80.8284 31.8433C83.2037 34.9108 85.2109 38.3564 85.8831 42.1558C77.4351 42.1467 68.9871 42.1771 60.5391 42.1375Z" fill="#EC9020"/>
<path id="Vector_18" d="M19.2363 42.1497C20.1199 38.4906 22.2167 35.231 24.5888 32.2854C31.0808 35.5572 37.5633 38.8413 44.0362 42.1467C35.7706 42.1619 27.5019 42.1588 19.2363 42.1497Z" fill="#EC9020"/>
<path id="Vector_19" d="M19.1152 45.138C41.3605 45.1349 63.609 45.0953 85.8543 45.1593C85.4893 45.9887 85.1436 46.876 84.4073 47.4798C83.4053 48.3488 82.0096 48.6537 80.6875 48.6415C61.8003 48.6293 42.9099 48.6385 24.0227 48.6385C22.6398 48.6232 21.1768 48.2329 20.2036 47.248C19.621 46.6656 19.3777 45.8789 19.1152 45.138Z" fill="#EC9020"/>
<path id="Vector_20" d="M45.5378 50.9164C46.0212 50.7365 46.5526 50.7792 47.0616 50.7639C51.22 50.7853 55.3816 50.7517 59.54 50.7792C60.8173 50.7151 61.8096 52.1025 61.3647 53.2216C61.1022 54.0693 60.1674 54.5877 59.2647 54.5084C54.8822 54.487 50.4965 54.5419 46.1172 54.4809C44.2093 54.3834 43.7676 51.5781 45.5378 50.9164Z" fill="#EC9020"/>
<path id="Vector_21" d="M46.5936 56.6093C47.1314 56.3501 47.7525 56.4203 48.3351 56.405C51.6484 56.4264 54.9616 56.3928 58.2749 56.4172C59.4561 56.3197 60.5285 57.4113 60.3301 58.5273C60.218 59.4543 59.3121 60.2288 58.3165 60.1404C54.6319 60.1404 50.9473 60.1708 47.2627 60.1282C45.3516 60.1068 44.8842 57.3076 46.5936 56.6093Z" fill="#EC9020"/>
<path id="Vector_22" d="M46.3477 63.287C46.5909 62.8083 46.639 61.9942 47.3945 62.0734C51.0246 62.0277 54.658 62.0551 58.2882 62.0582C59.1141 61.8661 59.764 63.0675 59.1557 63.6042C55.6344 66.5894 49.6737 66.5375 46.3477 63.287Z" fill="#EC9020"/>
</g>
</g>
<defs>
<filter id="filter0_d_328_296" x="2.7207" y="4.45801" width="99.4003" height="60.7739" filterUnits="userSpaceOnUse" color-interpolation-filters="sRGB">
<feFlood flood-opacity="0" result="BackgroundImageFix"/>
<feColorMatrix in="SourceAlpha" type="matrix" values="0 0 0 0 0 0 0 0 0 0 0 0 0 0 0 0 0 0 127 0" result="hardAlpha"/>
<feOffset dy="2"/>
<feGaussianBlur stdDeviation="1"/>
<feComposite in2="hardAlpha" operator="out"/>
<feColorMatrix type="matrix" values="0 0 0 0 0 0 0 0 0 0 0 0 0 0 0 0 0 0 1 0"/>
<feBlend mode="normal" in2="BackgroundImageFix" result="effect1_dropShadow_328_296"/>
<feBlend mode="normal" in="SourceGraphic" in2="effect1_dropShadow_328_296" result="shape"/>
</filter>
<filter id="filter1_d_328_296" x="17.1152" y="17.707" width="70.7679" height="52.0791" filterUnits="userSpaceOnUse" color-interpolation-filters="sRGB">
<feFlood flood-opacity="0" result="BackgroundImageFix"/>
<feColorMatrix in="SourceAlpha" type="matrix" values="0 0 0 0 0 0 0 0 0 0 0 0 0 0 0 0 0 0 127 0" result="hardAlpha"/>
<feOffset dy="2"/>
<feGaussianBlur stdDeviation="1"/>
<feComposite in2="hardAlpha" operator="out"/>
<feColorMatrix type="matrix" values="0 0 0 0 0 0 0 0 0 0 0 0 0 0 0 0 0 0 1 0"/>
<feBlend mode="normal" in2="BackgroundImageFix" result="effect1_dropShadow_328_296"/>
<feBlend mode="normal" in="SourceGraphic" in2="effect1_dropShadow_328_296" result="shape"/>
</filter>
</defs>
</svg>
