<svg width="125" height="125" viewBox="0 0 125 125" fill="none" xmlns="http://www.w3.org/2000/svg">
<g id="Objects">
<g id="Group">
<path id="Vector" d="M124.234 60.9413L119.249 54.8895L122.511 47.7553C122.961 46.7721 122.649 45.6059 121.764 44.9733L115.377 40.423L116.673 32.6867C116.848 31.6197 116.246 30.5755 115.232 30.1944L107.885 27.4581L107.138 19.6532C107.031 18.5785 106.185 17.7248 105.103 17.6181L97.298 16.8712L94.5617 9.51601C94.1806 8.50229 93.1364 7.90015 92.0694 8.07546L84.3331 9.37119L79.7828 2.98399C79.1578 2.09985 77.9916 1.78735 77.0008 2.23704L69.8666 5.49924L63.8148 0.514482C62.9764 -0.171494 61.7721 -0.171494 60.9413 0.514482L54.8895 5.49924L47.7553 2.23704C46.7721 1.78735 45.6059 2.09985 44.9733 2.98399L40.423 9.37119L32.6867 8.07546C31.6197 7.90015 30.5755 8.50229 30.1944 9.51601L27.4581 16.8636L19.6532 17.6105C18.5785 17.7172 17.7248 18.5633 17.6181 19.6456L16.8712 27.4505L9.51601 30.1867C8.50229 30.5678 7.90015 31.612 8.07546 32.6791L9.37119 40.4154L2.98399 44.9657C2.09985 45.5983 1.78735 46.7645 2.23704 47.7477L5.49924 54.8819L0.514482 60.9337C-0.171494 61.7721 -0.171494 62.9764 0.514482 63.8072L5.49924 69.859L2.23704 76.9931C1.78735 77.9764 2.09985 79.1425 2.98399 79.7752L9.37119 84.3255L8.07546 92.0617C7.90015 93.1288 8.50229 94.173 9.51601 94.5541L16.8636 97.2904L17.6105 105.095C17.7172 106.17 18.5633 107.024 19.6456 107.13L27.4505 107.877L30.1867 115.232C30.5678 116.246 31.612 116.856 32.6791 116.673L40.4154 115.377L44.9657 121.764C45.5983 122.649 46.7645 122.961 47.7477 122.511L54.8819 119.249L60.9337 124.234C61.3529 124.577 61.8636 124.752 62.3742 124.752C62.8849 124.752 63.3956 124.577 63.8148 124.234L69.8666 119.249L77.0008 122.511C77.984 122.961 79.1502 122.649 79.7828 121.764L84.3331 115.377L92.0694 116.673C93.1364 116.848 94.1806 116.246 94.5617 115.232L97.298 107.885L105.103 107.138C106.178 107.031 107.031 106.185 107.138 105.103L107.885 97.298L115.24 94.5617C116.254 94.1806 116.856 93.1364 116.681 92.0694L115.385 84.3331L121.772 79.7828C122.656 79.1502 122.969 77.984 122.519 77.0008L119.257 69.8666L124.242 63.8148C124.928 62.9764 124.928 61.7721 124.242 60.9413H124.234ZM62.359 113.868C33.9215 113.868 10.8651 90.8117 10.8651 62.3742C10.8651 33.9367 33.9215 10.888 62.359 10.888C90.7965 10.888 113.853 33.9444 113.853 62.3819C113.853 90.8194 90.7965 113.876 62.359 113.876V113.868Z" fill="white"/>
<path id="Vector_2" d="M62.3598 36.5132L64.2958 42.4583H70.5534L65.4924 46.1397L67.4208 52.0925L62.3598 48.411L57.2988 52.0925L59.2348 46.1397L54.1738 42.4583H60.4314L62.3598 36.5132Z" fill="white"/>
<path id="Vector_3" d="M62.3577 111.818C49.1488 111.818 36.7327 106.673 27.3958 97.3362C18.0589 87.9993 12.9141 75.5831 12.9141 62.3743C12.9141 49.1654 18.0589 36.7493 27.3958 27.4124C36.7327 18.0755 49.1488 12.9307 62.3577 12.9307C75.5665 12.9307 87.9827 18.0755 97.3195 27.4124C106.656 36.7493 111.801 49.1654 111.801 62.3743C111.801 75.5831 106.656 87.9993 97.3195 97.3362C87.9827 106.673 75.5665 111.818 62.3577 111.818ZM62.3577 14.0663C49.4537 14.0663 37.3195 19.0892 28.1961 28.2127C19.0726 37.3361 14.0497 49.4703 14.0497 62.3743C14.0497 75.2782 19.0726 87.4124 28.1961 96.5358C37.3195 105.659 49.4537 110.682 62.3577 110.682C75.2616 110.682 87.3958 105.659 96.5192 96.5358C105.643 87.4124 110.666 75.2782 110.666 62.3743C110.666 49.4703 105.643 37.3361 96.5192 28.2127C87.3958 19.0892 75.2616 14.0663 62.3577 14.0663Z" fill="white"/>
<g id="Group_2">
<path id="Vector_4" d="M31.9486 46.9167C31.3389 47.2825 30.6682 47.4502 29.9441 47.4197C29.22 47.3892 28.473 47.1606 27.7108 46.7337C26.9563 46.3069 26.377 45.7962 25.973 45.1865C25.5691 44.5843 25.3709 43.9212 25.3633 43.2124C25.3633 42.5036 25.5614 41.7871 25.9654 41.0706C26.2398 40.5752 26.5828 40.156 26.9791 39.8054C27.3755 39.4548 27.7947 39.2185 28.2291 39.0813L28.9532 40.0569C28.5035 40.2322 28.1224 40.4532 27.8175 40.7124C27.5127 40.9715 27.2611 41.284 27.0477 41.6575C26.6514 42.3664 26.5752 43.0371 26.8115 43.685C27.0554 44.3328 27.6041 44.8968 28.4578 45.377C29.3191 45.8648 30.0889 46.0478 30.7672 45.9182C31.4456 45.7962 31.9868 45.377 32.3831 44.6682C32.5889 44.2947 32.7261 43.9136 32.7871 43.5249C32.848 43.1286 32.8404 42.6941 32.7566 42.2139L33.9685 42.3282C34.0828 42.7703 34.0904 43.2505 33.999 43.7764C33.9075 44.2947 33.7246 44.8054 33.4502 45.3008C33.0462 46.0173 32.5355 46.5584 31.9258 46.9243L31.9486 46.9167Z" fill="white"/>
<path id="Vector_5" d="M37.2163 39.8358L31.416 33.7687L35.4709 29.8892L36.3017 30.7581L33.3215 33.6087L34.9297 35.2855L37.7346 32.6026L38.5654 33.4715L35.7605 36.1544L37.4602 37.9379L40.4404 35.0873L41.2712 35.9562L37.2163 39.8358Z" fill="white"/>
<path id="Vector_6" d="M50.5171 30.6587L49.0842 31.3828L46.8739 29.3706C46.6757 29.18 46.4623 29.0886 46.2412 29.0809C46.0202 29.0809 45.7687 29.1495 45.4867 29.2867L44.13 29.9727L45.7001 33.0901L44.351 33.7684L40.5781 26.2684L43.7946 24.6526C44.6406 24.2258 45.3876 24.0886 46.0126 24.2334C46.6452 24.3858 47.133 24.805 47.4836 25.4986C47.7351 25.9941 47.8114 26.4895 47.7275 26.9697C47.6361 27.4498 47.3921 27.8843 46.9806 28.273C47.4684 28.1434 47.9409 28.2883 48.4059 28.7151L50.5324 30.6587H50.5171ZM45.2732 28.0672C45.7839 27.8081 46.1193 27.5261 46.2717 27.2136C46.4242 26.9011 46.4013 26.5505 46.2031 26.1617C46.0126 25.7806 45.7458 25.5596 45.4104 25.4986C45.0751 25.4376 44.6482 25.5291 44.13 25.7959L42.4303 26.6495L43.5736 28.9209L45.2656 28.0672H45.2732Z" fill="white"/>
<path id="Vector_7" d="M55.8362 29.3404L54.609 22.3053L51.9185 22.7779L51.7051 21.5431L58.6182 20.3389L58.8316 21.566L56.1258 22.0386L57.3529 29.0736L55.8438 29.3404H55.8362Z" fill="white"/>
<path id="Vector_8" d="M63.6035 28.7232L64.0989 20.3467L65.6157 20.4381L65.1203 28.8147L63.6035 28.7232Z" fill="white"/>
<path id="Vector_9" d="M69.3945 29.363L71.7497 21.3066L77.0089 22.8463L76.6659 24.0124L72.8549 22.8996L72.207 25.11L75.797 26.1542L75.454 27.328L71.864 26.2838L70.8427 29.7899L69.3945 29.363Z" fill="white"/>
<path id="Vector_10" d="M78.0391 32.5722L82.1016 25.2246L83.4354 25.9639L79.3729 33.3115L78.0391 32.5722Z" fill="white"/>
<path id="Vector_11" d="M82.992 35.6439L88.617 29.4092L92.7862 33.1668L91.9783 34.0586L88.9143 31.2918L87.3594 33.0144L90.2405 35.6135L89.4325 36.5052L86.5514 33.9061L84.8975 35.7354L87.9615 38.5022L87.1536 39.3939L82.9844 35.6363L82.992 35.6439Z" fill="white"/>
<path id="Vector_12" d="M96.8502 38.0293L98.4127 40.697C99.1063 41.886 99.3274 42.9912 99.0835 44.0125C98.8319 45.0339 98.1383 45.8799 96.995 46.5506C95.8441 47.229 94.7542 47.4195 93.7405 47.1375C92.7268 46.8555 91.8655 46.1162 91.1719 44.9348L89.6094 42.2671L96.8579 38.0293H96.8502ZM92.1856 44.2259C93.1612 45.8952 94.5027 46.2305 96.2176 45.232C97.9173 44.2412 98.2755 42.9073 97.2999 41.2381L96.553 39.9653L91.4463 42.9531L92.1932 44.2259H92.1856Z" fill="white"/>
</g>
<g id="Group_3">
<path id="Vector_13" d="M39.4855 54.3254C38.8605 53.6166 38.0907 53.0602 37.1837 52.6638C36.2767 52.2675 35.2401 52.0693 34.0892 52.0693C33.2279 52.0693 32.4276 52.176 31.6806 52.3971C30.9337 52.6105 30.2325 52.9154 29.5846 53.2965C28.9367 53.6776 28.3422 54.1425 27.8087 54.6684C27.2751 55.202 26.7873 55.7812 26.3529 56.4138C25.9184 57.0465 25.5373 57.7096 25.2096 58.4184C24.8819 59.1273 24.6075 59.8513 24.3941 60.5831C24.173 61.3224 24.013 62.0541 23.9062 62.801C23.7995 63.5404 23.7462 64.2645 23.7462 64.9657C23.7462 66.269 23.9215 67.4733 24.2645 68.5632C24.6075 69.6532 25.1029 70.5983 25.7508 71.391C26.3986 72.1837 27.1761 72.7934 28.0907 73.2355C29.0053 73.6776 30.0419 73.8986 31.1852 73.8986C32.3285 73.8986 33.2889 73.6928 34.2187 73.2812C35.1486 72.8696 35.9947 72.3209 36.7569 71.6196C37.519 70.926 38.1898 70.1105 38.7691 69.1882C39.3559 68.266 39.8437 67.298 40.2325 66.2767C40.6212 65.2553 40.9184 64.2187 41.1242 63.1593C41.33 62.0998 41.4291 61.0861 41.4291 60.1181C41.4291 58.9291 41.2614 57.8468 40.9261 56.8635C40.5907 55.8803 40.1105 55.0343 39.4855 54.3178V54.3254ZM38.3803 61.3071C38.3117 61.894 38.2126 62.5114 38.0755 63.1517C37.9383 63.7919 37.763 64.4398 37.5495 65.0876C37.3361 65.7431 37.0922 66.3757 36.8102 66.9779C36.5282 67.5876 36.2005 68.1593 35.8346 68.6928C35.4687 69.2263 35.0648 69.6913 34.6227 70.0876C34.1806 70.484 33.6928 70.7965 33.1669 71.0251C32.6334 71.2538 32.0617 71.3681 31.452 71.3681C30.705 71.3681 30.0419 71.2233 29.455 70.926C28.8681 70.6288 28.3651 70.2172 27.9611 69.6989C27.5495 69.1806 27.237 68.5556 27.016 67.8468C26.795 67.1303 26.6883 66.3605 26.6883 65.5297C26.6883 64.7675 26.7873 63.9672 26.9779 63.1288C27.1684 62.2904 27.4352 61.4672 27.7858 60.6593C28.1288 59.8513 28.548 59.0815 29.0282 58.3498C29.5084 57.6181 30.0419 56.9779 30.6288 56.4215C31.2157 55.8651 31.8331 55.4306 32.4962 55.1029C33.1593 54.7751 33.8376 54.6151 34.5465 54.6151C35.2096 54.6151 35.7812 54.7446 36.2767 55.0114C36.7721 55.2782 37.1837 55.6364 37.5114 56.0937C37.8392 56.551 38.0831 57.0922 38.2431 57.7096C38.4032 58.327 38.487 58.9901 38.487 59.6989C38.487 60.1867 38.4566 60.7202 38.388 61.3148L38.3803 61.3071Z" fill="white"/>
<path id="Vector_14" d="M89.9818 59.6836C90.3705 59.6836 90.7059 59.6303 90.9879 59.516C91.2699 59.4016 91.4986 59.2568 91.6815 59.0663C91.8644 58.8833 92.0016 58.6699 92.0855 58.4413C92.1693 58.205 92.215 57.9611 92.215 57.7172C92.215 57.4428 92.1617 57.2065 92.0626 57.0083C91.9559 56.8102 91.8187 56.6501 91.6434 56.5282C91.4681 56.4062 91.2623 56.3147 91.0184 56.2614C90.7821 56.2004 90.5306 56.1699 90.2562 56.1699C89.8294 56.1699 89.4711 56.2309 89.1815 56.3605C88.8919 56.49 88.6632 56.6501 88.4879 56.833C88.3126 57.0236 88.1906 57.2218 88.1144 57.4352C88.0382 57.6486 88.0001 57.8391 88.0001 58.0068C88.0001 58.5175 88.1602 58.9214 88.4803 59.2263C88.8004 59.5312 89.3034 59.6836 89.9742 59.6836H89.9818Z" fill="white"/>
<path id="Vector_15" d="M101.313 66.3681C101.024 66.7188 100.673 67.0922 100.269 67.481C99.8653 67.8773 99.4308 68.2355 98.9888 68.5633C98.5391 68.891 98.0894 69.1654 97.6473 69.3788C97.2052 69.5922 96.7936 69.6989 96.4278 69.6989C96.0619 69.6989 95.7494 69.6227 95.5131 69.4627C95.2769 69.3026 95.0863 69.1121 94.9339 68.8758C94.7814 68.6395 94.6824 68.3803 94.6366 68.0983C94.5833 67.8163 94.5604 67.5419 94.5604 67.2828C94.5604 67.1075 94.5604 66.8941 94.5833 66.6349C94.5985 66.3758 94.6366 66.1014 94.7052 65.8194C94.7738 65.5374 94.8805 65.1867 95.033 64.7675C95.1854 64.3483 95.3378 64.0282 95.4979 63.7919C95.658 63.5633 95.8409 63.3803 96.0619 63.2355C96.283 63.0907 96.5497 63.0221 96.8622 63.0221C96.9918 63.0221 97.0756 63.0831 97.1138 63.1974C97.1519 63.3117 97.1747 63.4566 97.1747 63.6319C97.1824 63.8377 97.1747 63.9672 97.1595 64.0282C97.0452 64.4474 96.9766 64.7218 96.9537 64.8361C96.8851 65.0572 96.9461 65.3087 97.129 65.5907C97.2433 65.7736 97.4949 65.8651 97.8836 65.8651C98.1427 65.8651 98.3714 65.8041 98.5772 65.6898C98.783 65.5755 98.9888 65.3544 99.2098 65.0267C99.4232 64.7066 99.568 64.4169 99.6442 64.1807C99.7205 63.9367 99.7586 63.6928 99.7586 63.4489C99.7586 63.0907 99.6824 62.7553 99.5223 62.4505C99.3622 62.138 99.1412 61.8712 98.8592 61.6502C98.5772 61.4215 98.2418 61.2462 97.8455 61.1166C97.4491 60.9871 97.0147 60.9261 96.5497 60.9261C96.0314 60.9261 95.5589 61.0175 95.1244 61.1928C94.69 61.3682 94.3013 61.6121 93.9506 61.9169C93.6 62.2218 93.2875 62.5724 93.0208 62.9688C92.754 63.3651 92.533 63.7919 92.35 64.234C92.1671 64.6761 91.9994 65.1867 91.847 65.7813C91.6946 66.3681 91.6183 66.8788 91.6183 67.298C91.6183 67.6791 91.6641 68.0526 91.7403 68.4185C91.5878 68.5404 91.4278 68.6624 91.2753 68.7767C90.9324 69.0358 90.5894 69.2569 90.254 69.4398C89.9186 69.6227 89.6061 69.7142 89.3317 69.7142C89.0955 69.7142 88.9354 69.6151 88.8592 69.4246C88.783 69.234 88.7449 68.9749 88.7449 68.6471C88.7449 68.3194 88.7982 67.9383 88.9125 67.5343C89.0269 67.1227 89.1183 66.7111 89.1869 66.2996C89.2631 65.888 89.3927 65.3849 89.5909 64.798C89.7891 64.2111 89.9415 63.731 90.0406 63.3575C90.1397 62.984 90.2311 62.6486 90.3074 62.359C90.3836 62.0694 90.4293 61.8407 90.4293 61.6807C90.4293 61.4901 90.3759 61.3377 90.2616 61.231C90.1473 61.1166 89.9339 61.0633 89.6138 61.0633C89.4384 61.0633 89.2479 61.0861 89.0345 61.1242C88.8211 61.1624 88.6153 61.231 88.4095 61.3148C88.2113 61.3986 88.0284 61.5053 87.876 61.6425C87.7006 61.7874 87.5939 61.955 87.5558 62.138C87.4872 62.3971 87.3043 62.9688 87.0147 63.8377C86.7022 64.9047 86.4888 65.5907 86.3897 65.9032C86.3287 66.0633 86.1839 66.7721 85.9628 68.0374C85.9628 68.0526 85.9628 68.0678 85.9628 68.0831C85.8638 68.1441 85.757 68.2127 85.658 68.266C85.1702 68.5633 84.911 68.7081 84.8881 68.7005C84.8729 68.7005 84.6976 68.8148 84.3622 69.0587C84.2936 69.1273 84.1336 69.2035 83.882 69.2874C83.7144 69.356 83.5848 69.3864 83.4933 69.3864C83.2418 69.3864 83.0513 69.2416 82.9369 68.952C82.815 68.6624 82.7616 68.2889 82.7616 67.8392C82.7616 67.5724 82.7769 67.2752 82.815 66.955C82.8531 66.6349 82.8912 66.3072 82.9445 65.9794C82.9979 65.6517 83.0589 65.2782 83.1199 64.8666C83.1884 64.455 83.2418 64.1121 83.2952 63.8529C83.3485 63.5938 83.3942 63.3651 83.4247 63.1746C83.4628 62.984 83.4781 62.8544 83.4781 62.7706C83.4781 62.2294 83.3638 61.8102 83.1351 61.5053C82.9064 61.2005 82.6016 61.048 82.2205 61.048C81.8394 61.048 81.4888 61.1242 81.1763 61.2691C80.8638 61.4139 80.5817 61.6806 80.3378 62.077C80.2845 62.1608 80.2006 62.298 80.0939 62.481C79.9872 62.6639 79.8653 62.8697 79.7357 63.106C79.6061 63.3422 79.4613 63.5938 79.3165 63.8453C79.1641 64.1044 79.0269 64.4017 78.8973 64.7371C78.7677 65.0724 78.6534 65.3316 78.5543 65.5069C78.4552 65.6822 78.379 65.8117 78.3333 65.8956H78.1046C78.1046 65.8422 78.1199 65.7432 78.1427 65.5983C78.1656 65.4535 78.1961 65.2249 78.2266 64.92C78.2647 64.6151 78.2952 64.3483 78.3333 64.1121C78.3714 63.8758 78.4095 63.6471 78.44 63.4261C78.4781 63.205 78.5009 62.9992 78.5238 62.8163C78.5467 62.6334 78.5619 62.481 78.5619 62.3742C78.5619 61.9703 78.4781 61.6502 78.318 61.4139C78.158 61.17 77.8683 61.0557 77.4567 61.0557C77.0452 61.0557 76.7174 61.17 76.4735 61.391C76.2296 61.6197 76.0695 61.8941 75.9857 62.2294C75.879 62.6563 75.7647 63.1746 75.6503 63.7767C75.536 64.3788 75.4293 65.0572 75.3378 65.8117C75.2921 66.2081 75.2464 66.5816 75.2083 66.9474C74.8881 67.3514 74.5604 67.7172 74.2479 68.045C74.0878 68.2127 73.9125 68.3727 73.7372 68.5252C73.5543 68.6776 73.379 68.8224 73.1961 68.9444C73.0131 69.0663 72.8378 69.1654 72.6625 69.2416C72.4872 69.3178 72.3195 69.356 72.1595 69.356C71.9461 69.356 71.8013 69.2645 71.7403 69.0739C71.6717 68.8834 71.6412 68.6242 71.6412 68.2889C71.6412 67.9002 71.7022 67.42 71.8317 66.8483C71.9613 66.2767 72.068 65.7736 72.1671 65.3239C72.2662 64.8819 72.3577 64.4474 72.4339 64.0206C72.5101 63.5938 72.5482 63.2127 72.5482 62.8621C72.5482 62.6334 72.5253 62.4505 72.4872 62.3209C72.4415 62.1913 72.3881 62.0846 72.3119 62.0084C72.2357 61.9322 72.1442 61.8864 72.0452 61.8636C71.9461 61.8407 71.8394 61.8331 71.7174 61.8331C71.6336 61.8331 71.5421 61.8331 71.4583 61.8331C71.3668 61.8331 71.283 61.8331 71.1991 61.8331C71.1 61.8331 71.0009 61.8331 70.9019 61.8178C70.8028 61.8102 70.7113 61.7797 70.6199 61.7492C70.5284 61.7111 70.4522 61.6502 70.3912 61.5739C70.3302 61.4901 70.2692 61.4139 70.2006 61.3224C70.132 61.2386 70.0482 61.1624 69.9491 61.0938C69.85 61.0252 69.7128 60.9947 69.5299 60.9947C68.9964 60.9947 68.4705 61.1014 67.9598 61.3148C67.4491 61.5282 66.9613 61.8178 66.4964 62.1837C66.0314 62.5496 65.6046 62.9688 65.2159 63.4566C64.8272 63.9444 64.4613 64.516 64.1183 65.1867C63.7753 65.8575 63.5238 66.4749 63.3638 67.0465C63.2952 67.2904 63.2418 67.5267 63.2037 67.763C62.3348 68.9749 61.5421 69.8361 60.8256 70.3468C60.5741 70.5297 60.3378 70.6822 60.1092 70.8041C60.2235 69.6608 60.3074 68.7386 60.3607 68.0297C60.4141 67.3209 60.5284 66.673 60.7037 66.0861C60.879 65.5069 60.9705 65.0114 61.0009 64.6227C61.0695 63.3499 61.0619 62.6029 60.9628 62.3742C60.9095 62.2447 60.8561 62.138 60.8104 62.0541C60.6808 61.856 60.4445 61.7569 60.0939 61.7569H59.5833C59.4842 61.7645 59.3927 61.7569 59.3165 61.7569C59.2403 61.7569 59.1717 61.734 59.1107 61.7111C59.0497 61.6883 58.9964 61.673 58.9583 61.6578C58.9202 61.6502 58.8744 61.6197 58.8287 61.5739C58.783 61.5282 58.7525 61.4977 58.7296 61.4825C58.7067 61.4672 58.6763 61.4291 58.6305 61.3681C58.5848 61.3072 58.5467 61.2614 58.5238 61.2386C58.3409 61.0252 58.0513 60.9185 57.6473 60.9185C56.7631 60.9185 55.8561 61.3148 54.9186 62.1075C54.2708 62.6563 53.7448 63.2965 53.3409 64.0358C53.0665 64.5389 52.7845 65.141 52.5177 65.827C52.3881 65.888 52.2662 65.9413 52.129 65.9947C51.7631 66.1395 51.4049 66.2157 51.0543 66.2157C50.9323 66.2157 50.818 66.1928 50.7037 66.1471C50.5894 66.1014 50.4903 66.0252 50.4064 65.9261C50.315 65.8194 50.2464 65.6822 50.193 65.5069C50.1397 65.3316 50.1092 65.1105 50.1092 64.8514C50.1092 64.6989 50.132 64.5084 50.1702 64.2797C50.2083 64.0511 50.2692 63.7538 50.3531 63.4032C50.4369 63.045 50.4979 62.7553 50.536 62.5343C50.5741 62.3133 50.597 62.138 50.597 62.016C50.597 61.856 50.5665 61.7111 50.5055 61.5816C50.4445 61.452 50.3607 61.3453 50.2616 61.2614C50.1549 61.1776 50.0406 61.109 49.8958 61.0557C49.7586 61.0099 49.6138 60.9871 49.4689 60.9871C49.0497 60.9871 48.6763 61.0938 48.3485 61.3072C48.0284 61.5206 47.7388 61.7874 47.4872 62.0999C47.2357 62.4124 46.9918 62.8087 46.7631 63.2813C46.5345 63.7538 46.3439 64.1349 46.1839 64.4246H46.0543C46.0391 64.0511 46.0543 63.6166 46.0924 63.1212C46.1305 62.6258 46.1534 62.2447 46.1534 61.9779C46.1534 61.7492 46.1534 61.5739 46.1381 61.4444C46.1305 61.3148 46.0924 61.2157 46.0391 61.1471C45.9857 61.0785 45.9019 61.0328 45.7952 61.0175C45.6808 61.0023 45.5284 60.9871 45.3302 60.9871C45.1549 60.9871 45.0025 60.9947 44.8881 61.0175C44.7662 61.0328 44.6671 61.0709 44.5909 61.1242C44.507 61.1776 44.4384 61.2538 44.3775 61.3453C44.3165 61.4367 44.2555 61.5663 44.1945 61.7264C44.0955 61.9703 43.9964 62.2752 43.8973 62.641C43.7982 63.0145 43.6763 63.4794 43.5391 64.0358C43.4019 64.5922 43.2875 65.1181 43.1961 65.606C43.1046 66.0938 43.0284 66.5816 42.9674 67.0541C42.8988 67.5267 42.8531 67.9764 42.815 68.4032C42.7769 68.83 42.754 69.2035 42.754 69.5236C42.754 69.8133 42.7692 70.0953 42.8074 70.3697C42.8455 70.6441 42.9141 70.888 43.0131 71.1014C43.1199 71.3148 43.2647 71.4901 43.4552 71.6121C43.6458 71.7416 43.8973 71.8026 44.2174 71.8026C44.3546 71.8026 44.4842 71.7797 44.5985 71.734C44.7128 71.6883 44.8195 71.6044 44.9186 71.4901C45.0177 71.3758 45.1168 71.2233 45.2159 71.0404C45.315 70.8575 45.4141 70.6212 45.5208 70.3392L47.5787 64.8895H47.7616C47.8226 65.3468 47.9064 65.8041 48.0055 66.2462C48.1046 66.6959 48.257 67.0999 48.4628 67.4581C48.6686 67.8163 48.9506 68.106 49.3013 68.3346C49.6519 68.5556 50.1168 68.67 50.6961 68.67C51.0162 68.67 51.3363 68.6242 51.6488 68.5328C51.7098 68.5175 51.7708 68.4947 51.8317 68.4718C51.8317 69.0358 51.9384 69.5618 52.1824 70.0419C52.4339 70.5526 52.815 70.9794 53.318 71.3224C53.8211 71.6654 54.3699 71.8331 54.972 71.8331C55.7875 71.8331 56.6259 71.4444 57.4796 70.6746L57.2509 71.9703C56.7708 72.3742 56.3516 72.7477 56.001 73.0907C55.6503 73.4337 55.2083 73.8986 54.6747 74.4703C54.4156 74.7447 54.1564 75.0572 53.9125 75.4078C53.661 75.7508 53.4857 76.0175 53.3714 76.2081C53.257 76.3986 53.0589 76.734 52.7692 77.2142C52.2662 78.0755 52.0375 78.8834 52.0985 79.6532C52.1366 80.0572 52.2433 80.4154 52.4186 80.7203C52.5939 81.0252 52.815 81.2614 53.097 81.4367C53.379 81.6044 53.6839 81.734 54.0116 81.8178C54.3394 81.9017 54.7052 81.9398 55.0939 81.9398C55.5741 81.9398 56.0238 81.8636 56.4278 81.7188C56.8317 81.5739 57.1824 81.3834 57.472 81.1547C57.7616 80.9185 58.0284 80.6364 58.257 80.3011C58.4933 79.9657 58.6839 79.6227 58.8287 79.2874C58.9735 78.952 59.1031 78.5785 59.2174 78.1746C59.3317 77.7706 59.408 77.4047 59.4461 77.0846C59.4918 76.7645 59.5299 76.4367 59.5756 76.109C59.5909 75.9642 59.6214 75.7508 59.6595 75.484C59.7509 74.5465 59.8348 73.9063 59.911 73.5633C59.9872 73.2203 60.132 72.984 60.3378 72.8544C60.6656 72.641 61.1991 72.3133 61.9385 71.856C61.9766 71.8331 62.0299 71.8026 62.0985 71.7569C62.4796 71.4749 62.9522 71.0709 63.5009 70.5526C63.5314 70.5221 63.5543 70.4992 63.5848 70.4688C63.7067 70.6669 63.8439 70.8422 63.9964 70.9947C64.2631 71.2614 64.5756 71.4672 64.9263 71.6121C65.2769 71.7569 65.6351 71.8255 66.0009 71.8255C66.3516 71.8255 66.6945 71.7721 67.0452 71.6654C67.3958 71.5587 67.7311 71.4215 68.0513 71.2462C68.3714 71.0785 68.6686 70.888 68.9354 70.6746C69.2098 70.4688 69.4308 70.263 69.6214 70.0572C69.8729 70.6441 70.1625 71.0861 70.5055 71.391C70.8485 71.6959 71.2677 71.8483 71.7784 71.8483C72.1976 71.8483 72.6244 71.7492 73.0436 71.5511C73.4628 71.3529 73.8592 71.109 74.2327 70.8194C74.5299 70.5907 74.7967 70.3544 75.0482 70.1029C75.0482 70.1867 75.0634 70.2706 75.0711 70.3544C75.1092 70.6288 75.1778 70.8727 75.2769 71.0861C75.3836 71.2996 75.5284 71.4749 75.7189 71.5968C75.9095 71.7264 76.161 71.7874 76.4811 71.7874C76.7327 71.7874 76.9537 71.734 77.1519 71.6273C77.3348 71.5282 77.5101 71.3224 77.6702 71.0175L80.6884 65.3392H80.8714C80.7799 65.9185 80.7037 66.4672 80.6427 66.9703C80.5817 67.4733 80.5513 67.9459 80.5513 68.388C80.5513 69.5008 80.6961 70.3468 80.9857 70.9261C81.2753 71.5053 81.626 71.795 82.0528 71.795C82.4796 71.795 82.8759 71.734 83.2647 71.6197C83.4095 71.5816 83.783 71.4368 84.3851 71.1852C84.6061 71.0938 85.1244 70.8422 85.9324 70.4306C85.9324 70.4535 85.94 70.4764 85.9476 70.4992C86.0238 70.7736 86.1381 71.0023 86.3134 71.1928C86.4811 71.3834 86.7022 71.5282 86.9766 71.6349C87.251 71.7416 87.5863 71.795 87.9827 71.795C88.4247 71.795 88.8973 71.7188 89.3927 71.5663C89.8881 71.4139 90.376 71.2233 90.8485 70.9947C91.3211 70.766 91.7708 70.5145 92.1747 70.2401C92.2738 70.1715 92.3729 70.1105 92.4644 70.0419C92.5558 70.1791 92.6549 70.3087 92.7616 70.4306C93.1275 70.8422 93.5772 71.1776 94.1107 71.4215C94.6442 71.6654 95.2692 71.795 95.9857 71.795C96.3897 71.795 96.7936 71.734 97.19 71.6121C97.5863 71.4901 97.9674 71.3377 98.3333 71.1395C98.6991 70.9489 99.0497 70.7279 99.3775 70.4764C99.7128 70.2325 100.018 69.9733 100.307 69.7142C100.978 69.1044 101.595 68.4108 102.175 67.6258L101.382 66.3605L101.313 66.3681ZM57.1366 75.3011C57.0909 75.6746 57.0452 75.9871 57.0147 76.2386C56.9842 76.4901 56.9308 76.7188 56.8622 76.9322C56.7479 77.3285 56.6488 77.641 56.565 77.8773C56.4811 78.1136 56.3897 78.3575 56.283 78.6014C56.1763 78.8453 56.0848 79.0358 55.9857 79.173C55.8942 79.3026 55.7875 79.4246 55.6656 79.5389C55.5436 79.6532 55.4064 79.7294 55.2692 79.7752C55.1244 79.8209 54.9644 79.8438 54.7814 79.8438C54.2708 79.8438 54.1336 79.5008 54.3927 78.8072C54.6976 77.9764 55.1168 77.1608 55.6351 76.3529C56.161 75.545 56.6869 74.9657 57.2281 74.5999C57.2128 74.6989 57.1824 74.9352 57.1366 75.3087V75.3011ZM57.4186 66.6425C57.3881 67.2752 57.2357 67.9078 56.9689 68.5328C56.6259 69.3255 56.1915 69.7218 55.6656 69.7218C55.3683 69.7218 55.1244 69.5694 54.9415 69.2645C54.6595 68.7919 54.5909 68.0907 54.7357 67.1685C54.8043 66.7416 55.2006 65.9185 55.9324 64.7142C56.6107 63.5785 57.3881 63.0069 58.2799 63.0069L57.4186 66.6425ZM68.9049 66.6197C68.8744 66.856 68.8058 67.1456 68.7067 67.4962C68.6 67.8468 68.4628 68.1898 68.2952 68.5175C68.1275 68.8453 67.9293 69.1273 67.693 69.3636C67.4644 69.5999 67.2052 69.7142 66.9232 69.7142C66.7479 69.7142 66.6031 69.6685 66.4888 69.5846C66.3744 69.5008 66.283 69.3864 66.2144 69.2492C66.1458 69.1121 66.1 68.952 66.0695 68.7767C66.0391 68.6014 66.0314 68.4185 66.0314 68.2279C66.0314 67.9078 66.0772 67.5724 66.161 67.2066C66.2525 66.8483 66.3973 66.4291 66.6183 65.9489C66.8317 65.4688 67.0528 65.0724 67.2738 64.7447C67.4949 64.4169 67.7388 64.1349 68.0055 63.8758C68.2723 63.6242 68.5543 63.4261 68.8516 63.2736C69.1488 63.1288 69.4613 63.0526 69.7738 63.0526L68.9125 66.6044L68.9049 66.6197Z" fill="white"/>
</g>
<g id="Group_4">
<path id="Vector_16" d="M34.0511 80.6517L36.2919 83.5175C36.8483 84.2264 37.1075 84.92 37.077 85.5831C37.0465 86.2462 36.7264 86.8102 36.1319 87.2751C35.5374 87.7401 34.9124 87.9078 34.2492 87.7782C33.5938 87.6486 32.984 87.2294 32.4352 86.5282L31.1242 84.859L28.3651 87.016L27.4276 85.8193L34.0358 80.644L34.0511 80.6517ZM33.2584 85.6669C33.5861 86.0785 33.9139 86.33 34.2492 86.4062C34.5846 86.4901 34.92 86.4062 35.2401 86.1471C35.5678 85.8879 35.7355 85.5907 35.7431 85.2477C35.7431 84.9047 35.5831 84.5236 35.2553 84.1044L34.0587 82.5724L32.0617 84.1349L33.2584 85.6669Z" fill="white"/>
<path id="Vector_17" d="M41.405 98.9138L40.0864 97.9992L40.8028 95.0952C40.8714 94.8284 40.8562 94.5998 40.7571 94.4016C40.6504 94.2034 40.4751 94.0205 40.2159 93.8376L38.9659 92.9687L36.969 95.8269L35.7342 94.9656L40.5361 88.083L43.4858 90.1409C44.2632 90.6821 44.7434 91.269 44.9111 91.894C45.0788 92.519 44.9416 93.1516 44.4919 93.7918C44.1717 94.2492 43.783 94.554 43.3181 94.7065C42.8531 94.8589 42.3501 94.8437 41.8089 94.6684C42.1595 95.0342 42.251 95.522 42.0986 96.1318L41.405 98.9214V98.9138ZM41.1839 93.0678C41.6565 93.3955 42.0605 93.5479 42.4111 93.5327C42.7617 93.5175 43.0589 93.3269 43.3028 92.9763C43.5467 92.6257 43.6153 92.2903 43.5086 91.9626C43.4019 91.6348 43.1123 91.3071 42.6397 90.9717L41.0848 89.8818L39.6291 91.9702L41.1839 93.0601V93.0678Z" fill="white"/>
<path id="Vector_18" d="M48.4185 101.574C47.9459 101.063 47.641 100.453 47.5114 99.737C47.3819 99.0205 47.4505 98.2431 47.702 97.3971C47.9535 96.5586 48.327 95.8803 48.8224 95.3467C49.3178 94.8208 49.9047 94.4702 50.5755 94.3178C51.2538 94.1577 51.9779 94.1958 52.763 94.4321C53.548 94.6684 54.173 95.0342 54.6532 95.5373C55.1334 96.0403 55.4307 96.6501 55.545 97.3589C55.6669 98.0678 55.5983 98.8452 55.3468 99.6836C55.0953 100.53 54.7218 101.216 54.2264 101.742C53.731 102.267 53.1517 102.618 52.4733 102.778C51.8026 102.946 51.0709 102.908 50.2935 102.671C49.516 102.443 48.891 102.069 48.4185 101.566V101.574ZM52.6105 101.269C53.1745 100.88 53.6014 100.21 53.891 99.2492C54.173 98.3041 54.1883 97.5114 53.9215 96.8788C53.6624 96.2461 53.1517 95.8193 52.4124 95.5983C51.6654 95.3772 51.0099 95.4535 50.4459 95.8346C49.8819 96.2156 49.455 96.8864 49.173 97.8391C48.8834 98.7919 48.8758 99.5922 49.1349 100.225C49.3941 100.857 49.8971 101.292 50.6441 101.513C51.391 101.734 52.0465 101.65 52.6105 101.261V101.269Z" fill="white"/>
<path id="Vector_19" d="M60.035 96.0477L63.1219 95.9333C64.4939 95.88 65.5762 96.2077 66.3612 96.909C67.1463 97.6102 67.5655 98.6239 67.6112 99.9577C67.657 101.292 67.3216 102.343 66.5899 103.106C65.8582 103.868 64.8064 104.272 63.4344 104.325L60.3475 104.439L60.0426 96.0477H60.035ZM63.2896 103.09C65.2256 103.022 66.1554 101.993 66.0792 100.019C66.0106 98.0522 65.0045 97.1071 63.0762 97.1833L61.6051 97.2367L61.8186 103.151L63.2896 103.098V103.09Z" fill="white"/>
<path id="Vector_20" d="M74.3636 101.856C73.6014 101.505 73.0145 100.796 72.6105 99.7218L70.8575 95.0419L72.2599 94.516L74.0435 99.2721C74.295 99.9504 74.6456 100.4 75.0953 100.636C75.545 100.865 76.0785 100.865 76.7035 100.636C77.3133 100.408 77.7172 100.057 77.9002 99.5846C78.0907 99.112 78.0526 98.5404 77.8087 97.8697L76.0252 93.1136L77.4276 92.5876L79.1806 97.2675C79.577 98.3346 79.6075 99.2492 79.2569 100.019C78.9063 100.789 78.1974 101.376 77.1303 101.772C76.048 102.176 75.1258 102.207 74.3636 101.856Z" fill="white"/>
<path id="Vector_21" d="M86.8941 95.9184C86.1928 96.0251 85.5069 95.9184 84.8514 95.6212C84.1959 95.3239 83.5861 94.8209 83.0526 94.1349C82.5191 93.4565 82.1761 92.7629 82.0389 92.0465C81.8941 91.33 81.9627 90.644 82.2294 89.9885C82.4962 89.3331 82.9535 88.7462 83.6014 88.2355C84.0435 87.8849 84.516 87.6257 85.0191 87.4581C85.5221 87.2904 85.9947 87.2218 86.452 87.2675L86.7492 88.4413C86.2614 88.4413 85.8346 88.4946 85.4535 88.6166C85.0724 88.7385 84.7218 88.9367 84.3864 89.1959C83.7538 89.6989 83.4184 90.2934 83.3956 90.9794C83.3727 91.6654 83.67 92.3971 84.2721 93.1669C84.8819 93.9443 85.5297 94.4016 86.2005 94.5465C86.8712 94.6913 87.5343 94.5084 88.1746 94.0053C88.5099 93.7462 88.7767 93.4413 88.9901 93.1059C89.1959 92.7706 89.356 92.359 89.4627 91.8864L90.5374 92.4504C90.4764 92.9001 90.3011 93.3498 90.0191 93.7995C89.737 94.2492 89.3712 94.6456 88.9291 94.9962C88.2813 95.5068 87.6029 95.8117 86.9017 95.9184H86.8941Z" fill="white"/>
<path id="Vector_22" d="M96.1172 87.3056L90.2941 83.1593L88.7087 85.3849L87.6874 84.6608L91.7575 78.9443L92.7788 79.6684L91.1858 81.9093L97.009 86.0556L96.1172 87.3056Z" fill="white"/>
</g>
</g>
</g>
</svg>
